<svg width="14" height="14" viewBox="0 0 14 14" fill="none" xmlns="http://www.w3.org/2000/svg">
<path d="M7 12.2501C6.825 12.2501 6.70833 12.1917 6.59167 12.0751L3.675 9.15841C3.44167 8.92508 3.44167 8.57508 3.675 8.34175C3.90833 8.10841 4.25833 8.10841 4.49167 8.34175L7 10.8501L9.50833 8.34175C9.74167 8.10841 10.0917 8.10841 10.325 8.34175C10.5583 8.57508 10.5583 8.92508 10.325 9.15841L7.40833 12.0751C7.29167 12.1917 7.175 12.2501 7 12.2501Z" fill="#78829D"/>
<path d="M4.08333 5.83333C3.90833 5.83333 3.79167 5.775 3.675 5.65833C3.44167 5.425 3.44167 5.075 3.675 4.84167L6.59167 1.925C6.825 1.69167 7.175 1.69167 7.40833 1.925L10.325 4.84167C10.5583 5.075 10.5583 5.425 10.325 5.65833C10.0917 5.89167 9.74167 5.89167 9.50833 5.65833L7 3.15L4.49167 5.65833C4.375 5.775 4.25833 5.83333 4.08333 5.83333Z" fill="#78829D"/>
</svg>
