<svg width="20" height="20" viewBox="0 0 20 20" fill="none" xmlns="http://www.w3.org/2000/svg">
<path d="M13.4622 1.59961H6.53815C5.02587 1.60186 3.57618 2.20361 2.50684 3.27295C1.4375 4.3423 0.835752 5.79199 0.833496 7.30426V12.6934C0.835752 14.2057 1.4375 15.6554 2.50684 16.7247C3.57618 17.7941 5.02587 18.3958 6.53815 18.3981H13.4622C14.9745 18.3958 16.4241 17.7941 17.4935 16.7247C18.5628 15.6554 19.1646 14.2057 19.1668 12.6934V7.30426C19.1646 5.79199 18.5628 4.3423 17.4935 3.27295C16.4241 2.20361 14.9745 1.60186 13.4622 1.59961ZM17.973 12.6849C17.973 13.8812 17.4978 15.0286 16.6518 15.8745C15.8059 16.7205 14.6585 17.1957 13.4622 17.1957H6.53815C5.34179 17.1957 4.19444 16.7205 3.34849 15.8745C2.50254 15.0286 2.02729 13.8812 2.02729 12.6849V7.30426C2.02729 6.10791 2.50254 4.96055 3.34849 4.11461C4.19444 3.26866 5.34179 2.79341 6.53815 2.79341H13.4622C14.6585 2.79341 15.8059 3.26866 16.6518 4.11461C17.4978 4.96055 17.973 6.10791 17.973 7.30426V12.6849ZM8.41412 10.1267C8.89612 9.81484 9.26429 9.35539 9.46366 8.81701C9.66303 8.27863 9.6829 7.6902 9.52029 7.13959C9.35768 6.58899 9.02133 6.10576 8.56146 5.76207C8.10159 5.41837 7.54288 5.23266 6.96877 5.23266C6.39465 5.23266 5.83594 5.41837 5.37608 5.76207C4.91621 6.10576 4.57985 6.58899 4.41724 7.13959C4.25464 7.6902 4.2745 8.27863 4.47387 8.81701C4.67324 9.35539 5.04142 9.81484 5.52342 10.1267C4.94017 10.2345 4.40835 10.5306 4.00945 10.9695C3.61055 11.4085 3.36656 11.9661 3.31489 12.557C3.31489 12.7153 3.37778 12.8671 3.48972 12.979C3.60166 13.091 3.75348 13.1539 3.91179 13.1539C4.0701 13.1539 4.22192 13.091 4.33386 12.979C4.4458 12.8671 4.50869 12.7153 4.50869 12.557C4.50869 11.8919 5.51489 11.15 6.9645 11.15C8.41412 11.15 9.42884 11.8919 9.42884 12.557C9.42884 12.7153 9.49173 12.8671 9.60367 12.979C9.71561 13.091 9.86744 13.1539 10.0257 13.1539C10.1841 13.1539 10.3359 13.091 10.4478 12.979C10.5598 12.8671 10.6226 12.7153 10.6226 12.557C10.5714 11.9651 10.3277 11.4062 9.92889 10.9658C9.53008 10.5254 8.99806 10.2277 8.41412 10.1182V10.1267ZM6.9645 6.43449C7.2553 6.43281 7.54004 6.51761 7.78253 6.67811C8.02503 6.83862 8.21433 7.0676 8.3264 7.33594C8.43846 7.60428 8.46822 7.89988 8.4119 8.18518C8.35558 8.47048 8.21572 8.7326 8.0101 8.93823C7.80447 9.14385 7.54235 9.28371 7.25705 9.34003C6.97176 9.39635 6.67616 9.36659 6.40781 9.25452C6.13947 9.14246 5.91049 8.95316 5.74999 8.71066C5.58948 8.46817 5.50468 8.18343 5.50636 7.89263C5.5086 7.5066 5.66295 7.13702 5.93592 6.86404C6.20889 6.59107 6.57847 6.43673 6.9645 6.43449ZM15.7986 11.7043C15.7986 11.8626 15.7357 12.0144 15.6238 12.1263C15.5118 12.2383 15.36 12.3012 15.2017 12.3012H12.4219C12.2636 12.3012 12.1117 12.2383 11.9998 12.1263C11.8879 12.0144 11.825 11.8626 11.825 11.7043C11.825 11.546 11.8879 11.3941 11.9998 11.2822C12.1117 11.1702 12.2636 11.1074 12.4219 11.1074H15.2017C15.36 11.1074 15.5118 11.1702 15.6238 11.2822C15.7357 11.3941 15.7986 11.546 15.7986 11.7043ZM16.1056 8.65155C16.1056 8.80985 16.0427 8.96168 15.9308 9.07362C15.8188 9.18556 15.667 9.24845 15.5087 9.24845H11.2451C11.0868 9.24845 10.935 9.18556 10.8231 9.07362C10.7111 8.96168 10.6482 8.80985 10.6482 8.65155C10.6482 8.49324 10.7111 8.34142 10.8231 8.22948C10.935 8.11753 11.0868 8.05465 11.2451 8.05465H15.5087C15.6663 8.05685 15.8169 8.12045 15.9283 8.23191C16.0398 8.34338 16.1034 8.49393 16.1056 8.65155Z" fill="#181D4C"/>
<path d="M8.40489 10.1275C8.88689 9.81558 9.25507 9.35613 9.45444 8.81775C9.6538 8.27937 9.67367 7.69094 9.51106 7.14033C9.34845 6.58973 9.0121 6.1065 8.55223 5.76281C8.09236 5.41911 7.53365 5.2334 6.95954 5.2334C6.38543 5.2334 5.82672 5.41911 5.36685 5.76281C4.90698 6.1065 4.57063 6.58973 4.40802 7.14033C4.24541 7.69094 4.26527 8.27937 4.46464 8.81775C4.66401 9.35613 5.03219 9.81558 5.51419 10.1275C4.93094 10.2353 4.39912 10.5313 4.00022 10.9703C3.60132 11.4092 3.35734 11.9668 3.30566 12.5577C3.30566 12.716 3.36855 12.8678 3.48049 12.9798C3.59243 13.0917 3.74426 13.1546 3.90256 13.1546C4.06087 13.1546 4.21269 13.0917 4.32463 12.9798C4.43658 12.8678 4.49946 12.716 4.49946 12.5577C4.49946 11.8926 5.50566 11.1507 6.95528 11.1507C8.40489 11.1507 9.41962 11.8926 9.41962 12.5577C9.41962 12.716 9.4825 12.8678 9.59445 12.9798C9.70639 13.0917 9.85821 13.1546 10.0165 13.1546C10.1748 13.1546 10.3266 13.0917 10.4386 12.9798C10.5505 12.8678 10.6134 12.716 10.6134 12.5577C10.5621 11.9658 10.3185 11.407 9.91967 10.9666C9.52086 10.5262 8.98883 10.2285 8.40489 10.119V10.1275ZM6.95528 6.43523C7.24607 6.43355 7.53081 6.51835 7.7733 6.67885C8.0158 6.83936 8.20511 7.06834 8.31717 7.33668C8.42923 7.60502 8.459 7.90062 8.40268 8.18592C8.34636 8.47122 8.2065 8.73334 8.00087 8.93896C7.79524 9.14459 7.53312 9.28445 7.24783 9.34077C6.96253 9.39709 6.66693 9.36733 6.39858 9.25526C6.13024 9.1432 5.90127 8.95389 5.74076 8.7114C5.58025 8.46891 5.49545 8.18417 5.49714 7.89337C5.49937 7.50734 5.65372 7.13775 5.92669 6.86478C6.19966 6.59181 6.56924 6.43747 6.95528 6.43523ZM15.7894 11.705C15.7894 11.8633 15.7265 12.0151 15.6146 12.1271C15.5026 12.239 15.3508 12.3019 15.1925 12.3019H12.4126C12.2543 12.3019 12.1025 12.239 11.9906 12.1271C11.8786 12.0151 11.8157 11.8633 11.8157 11.705C11.8157 11.5467 11.8786 11.3949 11.9906 11.2829C12.1025 11.171 12.2543 11.1081 12.4126 11.1081H15.1925C15.3508 11.1081 15.5026 11.171 15.6146 11.2829C15.7265 11.3949 15.7894 11.5467 15.7894 11.705ZM16.0964 8.65229C16.0964 8.81059 16.0335 8.96242 15.9215 9.07436C15.8096 9.1863 15.6578 9.24918 15.4995 9.24918H11.2359C11.0776 9.24918 10.9258 9.1863 10.8138 9.07436C10.7019 8.96242 10.639 8.81059 10.639 8.65229C10.639 8.49398 10.7019 8.34215 10.8138 8.23021C10.9258 8.11827 11.0776 8.05539 11.2359 8.05539H15.4995C15.6571 8.05759 15.8076 8.12119 15.9191 8.23265C16.0306 8.34412 16.0942 8.49466 16.0964 8.65229Z" fill="#D8222A"/>
</svg>
