<svg width="40" height="40" viewBox="0 0 40 40" fill="none" xmlns="http://www.w3.org/2000/svg">
<path d="M36.6442 6.05805C36.183 5.54227 35.62 5.12763 34.9906 4.84025C34.3612 4.55286 33.6792 4.39897 32.9874 4.38827H13.0169C12.5317 4.41906 12.0536 4.5203 11.5976 4.68883L10.4454 2.78529C10.3288 2.57291 10.1572 2.39578 9.94862 2.27241C9.74007 2.14904 9.5022 2.08396 9.25989 2.08398H3.38229C3.03454 2.12187 2.71303 2.28684 2.47945 2.54725C2.24588 2.80765 2.1167 3.14513 2.1167 3.49494C2.1167 3.84475 2.24588 4.18224 2.47945 4.44264C2.71303 4.70304 3.03454 4.86802 3.38229 4.9059H8.4751L9.22649 6.24172C8.53507 7.06758 8.1204 8.08968 8.04095 9.16382L6.9723 24.0081C6.91805 24.7043 7.00388 25.4044 7.22471 26.0668C7.44554 26.7293 7.7969 27.3409 8.25803 27.8653C8.72109 28.3831 9.2868 28.799 9.91921 29.0864C10.5516 29.3739 11.2369 29.5267 11.9315 29.5351H31.8018C33.0854 29.5369 34.3206 29.0459 35.2527 28.1635C36.1849 27.2811 36.7427 26.0746 36.8111 24.7929L37.8798 9.94862C37.9444 9.25045 37.8684 8.5464 37.6562 7.87814C37.4439 7.20988 37.0998 6.59097 36.6442 6.05805ZM32.9874 7.26028C33.3006 7.25543 33.6113 7.31689 33.8991 7.44063C34.1869 7.56438 34.4452 7.74761 34.6571 7.97828C34.8605 8.20387 35.017 8.46771 35.1173 8.75439C35.2176 9.04108 35.2599 9.34487 35.2416 9.64806L35.0078 12.9876H10.5289L10.7961 9.3642C10.83 8.7971 11.0783 8.26414 11.4908 7.87343C11.9032 7.48271 12.4488 7.26351 13.0169 7.26028H32.9874ZM31.8352 26.7131H11.9649C11.6506 26.7148 11.3395 26.6503 11.0518 26.5237C10.7641 26.3971 10.5063 26.2113 10.2951 25.9784C9.88754 25.5208 9.67746 24.9206 9.71073 24.3087L10.3118 15.9598H34.6905L34.0727 24.6927C34.0115 25.2449 33.7499 25.7554 33.3376 26.1278C32.9253 26.5001 32.3908 26.7084 31.8352 26.7131ZM17.9761 35.062C17.9662 35.6344 17.7875 36.1911 17.4623 36.6623C17.1371 37.1334 16.68 37.498 16.1483 37.7103C15.6166 37.9225 15.0341 37.973 14.4738 37.8553C13.9135 37.7376 13.4005 37.457 12.9992 37.0487C12.5979 36.6405 12.3261 36.1227 12.218 35.5606C12.1099 34.9984 12.1703 34.4168 12.3916 33.8888C12.6129 33.3608 12.9852 32.91 13.4619 32.5929C13.9385 32.2758 14.4982 32.1066 15.0707 32.1065C15.4559 32.1087 15.8368 32.187 16.1916 32.3369C16.5464 32.4868 16.868 32.7054 17.138 32.9801C17.408 33.2547 17.6211 33.5801 17.7649 33.9374C17.9087 34.2947 17.9805 34.6769 17.9761 35.062ZM31.0003 35.062C30.9872 35.6303 30.8067 36.1821 30.4814 36.6483C30.1561 37.1145 29.7005 37.4743 29.1716 37.6827C28.6427 37.8912 28.0641 37.9389 27.5082 37.82C26.9524 37.7011 26.4439 37.4209 26.0466 37.0144C25.6492 36.6078 25.3807 36.0931 25.2745 35.5347C25.1684 34.9762 25.2293 34.3988 25.4498 33.8749C25.6703 33.3509 26.0404 32.9036 26.5139 32.5891C26.9874 32.2745 27.5432 32.1067 28.1116 32.1065C28.4954 32.1109 28.8745 32.1908 29.2274 32.3417C29.5802 32.4926 29.8999 32.7115 30.1681 32.9859C30.4364 33.2604 30.6479 33.585 30.7907 33.9412C30.9335 34.2974 31.0047 34.6783 31.0003 35.062Z" fill="#D3D2D2"/>
<path d="M17.9801 35.0614C17.9702 35.6338 17.7914 36.1905 17.4662 36.6616C17.1411 37.1328 16.6839 37.4974 16.1522 37.7096C15.6205 37.9219 15.038 37.9723 14.4778 37.8546C13.9175 37.7369 13.4045 37.4563 13.0032 37.0481C12.6018 36.6398 12.3301 36.1221 12.222 35.5599C12.1138 34.9977 12.1742 34.4161 12.3955 33.8882C12.6168 33.3602 12.9892 32.9093 13.4658 32.5922C13.9425 32.2752 14.5022 32.106 15.0747 32.1059C15.4598 32.108 15.8407 32.1863 16.1955 32.3363C16.5503 32.4862 16.872 32.7047 17.142 32.9794C17.412 33.2541 17.625 33.5794 17.7689 33.9367C17.9127 34.294 17.9845 34.6762 17.9801 35.0614ZM31.0043 35.0614C30.9911 35.6297 30.8106 36.1815 30.4853 36.6476C30.16 37.1138 29.7044 37.4737 29.1755 37.6821C28.6467 37.8905 28.0681 37.9383 27.5122 37.8194C26.9563 37.7005 26.4479 37.4202 26.0505 37.0137C25.6532 36.6072 25.3846 36.0925 25.2785 35.534C25.1723 34.9756 25.2333 34.3982 25.4537 33.8742C25.6742 33.3503 26.0444 32.903 26.5179 32.5884C26.9914 32.2739 27.5471 32.106 28.1156 32.1059C28.4993 32.1102 28.8785 32.1901 29.2313 32.341C29.5842 32.4919 29.9038 32.7108 30.1721 32.9853C30.4403 33.2597 30.6519 33.5843 30.7947 33.9406C30.9375 34.2968 31.0087 34.6776 31.0043 35.0614Z" fill="#D3D2D2"/>
</svg>
