<svg width="20" height="20" viewBox="0 0 20 20" fill="none" xmlns="http://www.w3.org/2000/svg">
<path d="M14.8475 2.534V1.23518C14.8296 1.08702 14.7579 0.950527 14.6458 0.851504C14.5338 0.752482 14.3892 0.6978 14.2394 0.6978C14.0896 0.6978 13.945 0.752482 13.8329 0.851504C13.7209 0.950527 13.6491 1.08702 13.6312 1.23518V2.34222H13.3512H10.7788V1.23518C10.7788 1.07335 10.7142 0.918149 10.5994 0.803718C10.4845 0.689287 10.3287 0.625 10.1662 0.625C10.0038 0.625 9.84801 0.689287 9.73315 0.803718C9.61828 0.918149 9.55375 1.07335 9.55375 1.23518V2.32479H6.64875H6.36875V1.23518C6.35088 1.08702 6.27913 0.950527 6.16707 0.851504C6.05501 0.752482 5.91042 0.6978 5.76063 0.6978C5.61084 0.6978 5.46624 0.752482 5.35418 0.851504C5.24212 0.950527 5.17037 1.08702 5.1525 1.23518V2.534C4.02869 2.85693 3.04054 3.53471 2.33675 4.46536C1.63295 5.39601 1.25157 6.52918 1.25 7.69438V14.0054C1.25463 15.4326 1.8276 16.7997 2.84309 17.8064C3.85858 18.8132 5.2336 19.3773 6.66625 19.375H13.3688C14.7953 19.3681 16.1614 18.7999 17.1693 17.7941C18.1772 16.7884 18.7454 15.4266 18.75 14.0054V7.69438C18.7484 6.52918 18.367 5.39601 17.6633 4.46536C16.9595 3.53471 15.9713 2.85693 14.8475 2.534ZM5.1525 3.81538V4.52144C5.17037 4.6696 5.24212 4.8061 5.35418 4.90512C5.46624 5.00414 5.61084 5.05882 5.76063 5.05882C5.91042 5.05882 6.05501 5.00414 6.16707 4.90512C6.27913 4.8061 6.35088 4.6696 6.36875 4.52144V3.56259C6.465 3.56259 6.5525 3.56259 6.64875 3.56259H9.55375V4.52144C9.55375 4.68327 9.61828 4.83847 9.73315 4.95291C9.84801 5.06734 10.0038 5.13162 10.1662 5.13162C10.3287 5.13162 10.4845 5.06734 10.5994 4.95291C10.7142 4.83847 10.7788 4.68327 10.7788 4.52144V3.53644H13.3512C13.4475 3.53644 13.535 3.53644 13.6312 3.53644V4.49529C13.6491 4.64345 13.7209 4.77995 13.8329 4.87897C13.945 4.97799 14.0896 5.03267 14.2394 5.03267C14.3892 5.03267 14.5338 4.97799 14.6458 4.87897C14.7579 4.77995 14.8296 4.64345 14.8475 4.49529V3.81538C15.5351 4.08184 16.14 4.52442 16.6009 5.09839C17.0618 5.67236 17.3625 6.35738 17.4725 7.0842H2.51C2.6216 6.35545 2.92487 5.66913 3.38901 5.09499C3.85314 4.52084 4.46159 4.07935 5.1525 3.81538ZM13.3512 18.1633H6.64875C5.53867 18.1657 4.47301 17.7292 3.68561 16.9497C2.89821 16.1701 2.45338 15.1113 2.44875 14.0054V8.26098H17.5512V13.9705C17.5536 14.5211 17.4466 15.0666 17.2364 15.5758C17.0263 16.0849 16.7171 16.5477 16.3268 16.9373C15.9364 17.327 15.4726 17.636 14.9619 17.8464C14.4513 18.0568 13.9039 18.1645 13.3512 18.1633ZM7.89125 11.6083C7.89648 11.7593 7.85632 11.9084 7.77591 12.0365C7.69551 12.1646 7.57853 12.2658 7.43997 12.3273C7.30141 12.3887 7.14759 12.4075 6.99823 12.3813C6.84888 12.355 6.7108 12.2849 6.60169 12.18C6.49259 12.075 6.41744 11.94 6.38587 11.7922C6.35431 11.6445 6.36777 11.4907 6.42454 11.3506C6.4813 11.2105 6.57878 11.0904 6.70447 11.0059C6.83016 10.9213 6.97834 10.8761 7.13 10.876C7.32743 10.8759 7.51718 10.9522 7.65921 11.0888C7.80124 11.2255 7.88444 11.4117 7.89125 11.6083ZM10.7438 11.6083C10.7507 11.7624 10.7109 11.915 10.6294 12.0462C10.548 12.1774 10.4287 12.2811 10.2872 12.3437C10.1457 12.4063 9.98849 12.425 9.83616 12.3973C9.68383 12.3696 9.54343 12.2968 9.43329 12.1883C9.32314 12.0799 9.24838 11.9409 9.21875 11.7895C9.18912 11.6381 9.20601 11.4813 9.26721 11.3396C9.32841 11.1979 9.43107 11.0778 9.56179 10.9951C9.69252 10.9124 9.84523 10.8709 10 10.876C10.1944 10.8804 10.3797 10.9587 10.518 11.0948C10.6563 11.231 10.7371 11.4147 10.7438 11.6083ZM13.6137 11.6083C13.6172 11.761 13.5748 11.9114 13.492 12.04C13.4091 12.1686 13.2896 12.2696 13.1487 12.3301C13.0078 12.3906 12.852 12.4078 12.7013 12.3795C12.5505 12.3511 12.4117 12.2786 12.3026 12.1712C12.1935 12.0638 12.1191 11.9263 12.089 11.7765C12.0588 11.6266 12.0743 11.4712 12.1333 11.3302C12.1924 11.1892 12.2924 11.0689 12.4206 10.9849C12.5487 10.9009 12.6991 10.8569 12.8525 10.8586C13.0529 10.8586 13.2452 10.9373 13.3877 11.0776C13.5302 11.218 13.6114 11.4086 13.6137 11.6083ZM7.8825 14.4238C7.88136 14.5223 7.86076 14.6195 7.82188 14.71C7.78301 14.8006 7.72661 14.8826 7.65593 14.9514C7.58524 15.0202 7.50163 15.0744 7.40989 15.111C7.31815 15.1476 7.22007 15.1659 7.12125 15.1647C6.97243 15.163 6.82748 15.1174 6.70471 15.0336C6.58194 14.9497 6.48687 14.8316 6.43152 14.6939C6.37617 14.5563 6.36304 14.4054 6.39377 14.2603C6.4245 14.1153 6.49772 13.9825 6.60418 13.8789C6.71063 13.7753 6.84553 13.7055 6.99182 13.6783C7.13812 13.651 7.28923 13.6676 7.42606 13.7259C7.56289 13.7843 7.67928 13.8817 7.76053 14.0059C7.84177 14.1301 7.88422 14.2756 7.8825 14.4238ZM10.735 14.4238C10.7385 14.5762 10.6963 14.7262 10.6138 14.8546C10.5314 14.983 10.4124 15.0841 10.272 15.1448C10.1316 15.2056 9.9763 15.2233 9.8258 15.1957C9.6753 15.1681 9.53646 15.0964 9.42702 14.9899C9.31758 14.8833 9.24248 14.7467 9.21133 14.5974C9.18017 14.4482 9.19436 14.293 9.25209 14.1519C9.30982 14.0107 9.40847 13.8898 9.53545 13.8047C9.66243 13.7197 9.81197 13.6742 9.965 13.6742C10.0653 13.6718 10.165 13.6895 10.2583 13.7261C10.3517 13.7628 10.4367 13.8176 10.5084 13.8875C10.5802 13.9573 10.6372 14.0407 10.6761 14.1328C10.715 14.225 10.735 14.3239 10.735 14.4238ZM13.605 14.4238C13.6085 14.5762 13.5663 14.7262 13.4838 14.8546C13.4014 14.983 13.2824 15.0841 13.142 15.1448C13.0016 15.2056 12.8463 15.2233 12.6958 15.1957C12.5453 15.1681 12.4065 15.0964 12.297 14.9899C12.1876 14.8833 12.1125 14.7467 12.0813 14.5974C12.0502 14.4482 12.0644 14.293 12.1221 14.1519C12.1798 14.0107 12.2785 13.8898 12.4054 13.8047C12.5324 13.7197 12.682 13.6742 12.835 13.6742C12.9353 13.6718 13.035 13.6895 13.1283 13.7261C13.2217 13.7628 13.3067 13.8176 13.3784 13.8875C13.4502 13.9573 13.5072 14.0407 13.5461 14.1328C13.585 14.225 13.605 14.3239 13.605 14.4238Z" fill="#181D4C"/>
<path d="M7.89998 11.6083C7.90521 11.7593 7.86504 11.9084 7.78464 12.0365C7.70423 12.1646 7.58725 12.2658 7.44869 12.3273C7.31014 12.3887 7.15632 12.4075 7.00696 12.3813C6.85761 12.355 6.71952 12.2849 6.61042 12.18C6.50132 12.075 6.42616 11.94 6.3946 11.7922C6.36304 11.6445 6.3765 11.4907 6.43326 11.3506C6.49003 11.2105 6.58751 11.0904 6.7132 11.0059C6.83889 10.9214 6.98707 10.8761 7.13873 10.876C7.33616 10.8759 7.52591 10.9522 7.66794 11.0888C7.80997 11.2255 7.89317 11.4117 7.89998 11.6083ZM10.7525 11.6083C10.7594 11.7624 10.7196 11.915 10.6381 12.0462C10.5567 12.1774 10.4374 12.2811 10.2959 12.3437C10.1544 12.4064 9.99721 12.425 9.84488 12.3973C9.69255 12.3696 9.55215 12.2968 9.44201 12.1883C9.33187 12.0799 9.25711 11.9409 9.22748 11.7895C9.19785 11.6381 9.21474 11.4813 9.27594 11.3396C9.33713 11.1979 9.4398 11.0778 9.57052 10.9951C9.70125 10.9124 9.85396 10.8709 10.0087 10.876C10.2031 10.8804 10.3885 10.9587 10.5268 11.0948C10.6651 11.231 10.7458 11.4147 10.7525 11.6083ZM13.6225 11.6083C13.626 11.761 13.5835 11.9114 13.5007 12.04C13.4178 12.1686 13.2983 12.2696 13.1574 12.3301C13.0166 12.3906 12.8608 12.4078 12.71 12.3795C12.5593 12.3511 12.4205 12.2786 12.3114 12.1712C12.2023 12.0638 12.1279 11.9263 12.0977 11.7765C12.0675 11.6266 12.083 11.4712 12.1421 11.3302C12.2012 11.1892 12.3012 11.0689 12.4293 10.9849C12.5574 10.9009 12.7078 10.8569 12.8612 10.8586C13.0616 10.8586 13.2539 10.9373 13.3964 11.0776C13.539 11.218 13.6202 11.4086 13.6225 11.6083ZM7.89123 14.4238C7.89008 14.5223 7.86949 14.6195 7.83061 14.71C7.79174 14.8006 7.73534 14.8826 7.66465 14.9514C7.59396 15.0202 7.51036 15.0744 7.41862 15.111C7.32688 15.1476 7.2288 15.1659 7.12998 15.1647C6.98116 15.163 6.8362 15.1174 6.71343 15.0336C6.59066 14.9498 6.49559 14.8316 6.44025 14.6939C6.3849 14.5563 6.37176 14.4054 6.4025 14.2603C6.43323 14.1153 6.50645 13.9825 6.6129 13.8789C6.71936 13.7753 6.85426 13.7055 7.00055 13.6783C7.14684 13.651 7.29796 13.6676 7.43479 13.7259C7.57162 13.7843 7.68801 13.8817 7.76926 14.0059C7.8505 14.1301 7.89295 14.2756 7.89123 14.4238ZM10.7437 14.4238C10.7472 14.5762 10.705 14.7262 10.6226 14.8546C10.5401 14.983 10.4211 15.0841 10.2807 15.1448C10.1404 15.2056 9.98502 15.2233 9.83452 15.1957C9.68402 15.1681 9.54519 15.0964 9.43575 14.9899C9.3263 14.8833 9.25121 14.7467 9.22005 14.5974C9.1889 14.4482 9.20309 14.2931 9.26082 14.1519C9.31855 14.0107 9.4172 13.8898 9.54418 13.8048C9.67115 13.7197 9.8207 13.6742 9.97373 13.6742C10.074 13.6718 10.1737 13.6895 10.2671 13.7261C10.3604 13.7628 10.4454 13.8176 10.5172 13.8875C10.5889 13.9573 10.6459 14.0407 10.6848 14.1328C10.7237 14.225 10.7438 14.3239 10.7437 14.4238ZM13.6137 14.4238C13.6172 14.5762 13.575 14.7262 13.4926 14.8546C13.4101 14.983 13.2911 15.0841 13.1507 15.1448C13.0104 15.2056 12.855 15.2233 12.7045 15.1957C12.554 15.1681 12.4152 15.0964 12.3057 14.9899C12.1963 14.8833 12.1212 14.7467 12.0901 14.5974C12.0589 14.4482 12.0731 14.2931 12.1308 14.1519C12.1885 14.0107 12.2872 13.8898 12.4142 13.8048C12.5412 13.7197 12.6907 13.6742 12.8437 13.6742C12.944 13.6718 13.0437 13.6895 13.1371 13.7261C13.2304 13.7628 13.3154 13.8176 13.3872 13.8875C13.4589 13.9573 13.5159 14.0407 13.5548 14.1328C13.5937 14.225 13.6138 14.3239 13.6137 14.4238Z" fill="#D8222A"/>
</svg>
