<svg width="20" height="20" viewBox="0 0 20 20" fill="none" xmlns="http://www.w3.org/2000/svg">
<path d="M14.0679 7.89674H5.83993C5.65565 7.89674 5.47893 7.82354 5.34863 7.69324C5.21832 7.56294 5.14512 7.38621 5.14512 7.20194C5.14512 7.01767 5.21832 6.84094 5.34863 6.71064C5.47893 6.58034 5.65565 6.50713 5.83993 6.50713H14.0679C14.2522 6.50713 14.4289 6.58034 14.5592 6.71064C14.6895 6.84094 14.7627 7.01767 14.7627 7.20194C14.7627 7.38621 14.6895 7.56294 14.5592 7.69324C14.4289 7.82354 14.2522 7.89674 14.0679 7.89674ZM9.07626 10.8497H5.89478C5.71051 10.8497 5.53378 10.9229 5.40348 11.0532C5.27318 11.1835 5.19998 11.3602 5.19998 11.5445C5.19998 11.7287 5.27318 11.9055 5.40348 12.0358C5.53378 12.1661 5.71051 12.2393 5.89478 12.2393H9.07626C9.26053 12.2393 9.43726 12.1661 9.56756 12.0358C9.69786 11.9055 9.77106 11.7287 9.77106 11.5445C9.77106 11.3602 9.69786 11.1835 9.56756 11.0532C9.43726 10.9229 9.26053 10.8497 9.07626 10.8497ZM18.8858 11.6633L11.6818 19.2239C11.6214 19.2917 11.5464 19.345 11.4625 19.3799C11.3786 19.4147 11.2879 19.4301 11.1972 19.425H6.62615C5.12361 19.4226 3.6833 18.8246 2.62084 17.7622C1.55838 16.6997 0.960425 15.2594 0.958008 13.7569V7.0191C0.962401 5.63432 1.47034 4.29841 2.38711 3.26054C3.30387 2.22266 4.56685 1.55369 5.94049 1.37838V1.26867C5.94049 1.08682 6.01273 0.91242 6.14132 0.783834C6.2699 0.655247 6.4443 0.583008 6.62615 0.583008C6.808 0.583008 6.9824 0.655247 7.11099 0.783834C7.23958 0.91242 7.31182 1.08682 7.31182 1.26867V1.35095H12.6143V1.26867C12.6143 1.08682 12.6865 0.91242 12.8151 0.783834C12.9437 0.655247 13.1181 0.583008 13.2999 0.583008C13.4818 0.583008 13.6562 0.655247 13.7848 0.783834C13.9134 0.91242 13.9856 1.08682 13.9856 1.26867V1.37838C15.3764 1.52752 16.6627 2.18649 17.5963 3.22814C18.5299 4.26979 19.0447 5.6203 19.0412 7.0191V11.1879C19.0445 11.3642 18.9789 11.5347 18.8584 11.6633H18.8858ZM10.4476 15.2196C10.4106 14.0087 10.8559 12.8326 11.6856 11.9498C12.5153 11.067 13.6615 10.5496 14.8724 10.5114H17.6699V7.0191C17.6778 5.98898 17.3114 4.99104 16.6387 4.2108C15.9661 3.43056 15.0331 2.9211 14.013 2.77713V2.94169C14.013 3.12354 13.9408 3.29794 13.8122 3.42652C13.6836 3.55511 13.5092 3.62735 13.3274 3.62735C13.1455 3.62735 12.9711 3.55511 12.8425 3.42652C12.7139 3.29794 12.6417 3.12354 12.6417 2.94169V2.69485H7.31182V2.91426C7.31182 3.09611 7.23958 3.27051 7.11099 3.3991C6.9824 3.52768 6.808 3.59992 6.62615 3.59992C6.4443 3.59992 6.2699 3.52768 6.14132 3.3991C6.01273 3.27051 5.94049 3.09611 5.94049 2.91426V2.77713C4.92602 2.9337 4.00059 3.44677 3.33036 4.22424C2.66014 5.0017 2.28901 5.99263 2.28362 7.0191V13.7843C2.28604 14.9231 2.73951 16.0147 3.5448 16.8199C4.35009 17.6252 5.4416 18.0787 6.58044 18.0811H10.475L10.4476 15.2196ZM14.9272 11.837C14.0842 11.8586 13.284 12.2131 12.7015 12.8229C12.119 13.4328 11.8017 14.2485 11.8189 15.0916V17.0481L16.7557 11.837H14.9272Z" fill="#181D4C"/>
<path d="M14.0629 7.89742H5.83494C5.65067 7.89742 5.47394 7.82422 5.34364 7.69392C5.21334 7.56362 5.14014 7.38689 5.14014 7.20262C5.14014 7.01834 5.21334 6.84162 5.34364 6.71132C5.47394 6.58101 5.65067 6.50781 5.83494 6.50781H14.0629C14.2472 6.50781 14.4239 6.58101 14.5542 6.71132C14.6845 6.84162 14.7577 7.01834 14.7577 7.20262C14.7577 7.38689 14.6845 7.56362 14.5542 7.69392C14.4239 7.82422 14.2472 7.89742 14.0629 7.89742ZM9.07127 10.8503H5.88979C5.70552 10.8503 5.5288 10.9235 5.39849 11.0538C5.26819 11.1841 5.19499 11.3609 5.19499 11.5451C5.19499 11.7294 5.26819 11.9061 5.39849 12.0364C5.5288 12.1668 5.70552 12.24 5.88979 12.24H9.07127C9.25554 12.24 9.43227 12.1668 9.56257 12.0364C9.69287 11.9061 9.76608 11.7294 9.76608 11.5451C9.76608 11.3609 9.69287 11.1841 9.56257 11.0538C9.43227 10.9235 9.25554 10.8503 9.07127 10.8503Z" fill="#D8222A"/>
</svg>
