<svg width="256" height="260" viewBox="0 0 256 260" fill="none" xmlns="http://www.w3.org/2000/svg">
<path d="M88.4682 217.775C79.3152 222.284 68.0086 220.332 59.3267 215.15C50.5775 209.968 43.982 201.824 37.9922 193.614C34.5598 188.835 31.2619 183.922 29.3102 178.403C23.0511 160.568 32.2042 140.647 45.3953 127.052C58.5191 113.457 75.4117 104.103 89.545 91.5173C95.5348 86.2005 100.986 80.3451 107.38 75.5667C123.465 63.3852 144.934 58.6068 164.721 62.8468C175.354 65.1351 185.719 70.1154 193.055 78.1242C198.775 84.316 202.477 92.0556 207.053 99.1222C211.495 105.987 216.745 112.313 222.735 117.899C228.051 122.88 233.907 127.322 238.752 132.773C255.106 151.281 255.914 181.634 240.637 201.017C230.541 213.804 215.197 221.274 199.852 226.457C187.469 230.697 193.458 193.412 180.402 192.133C170.912 191.191 138.742 206.401 129.253 221.746C125.215 228.274 117.879 228.274 110.274 227.803C100.784 227.264 91.4294 224.236 83.3533 219.188" fill="#F9F9F9"/>
<path d="M61.0097 295.107C61.4135 291.809 64.4421 289.319 65.2497 286.089C65.5863 284.743 65.5188 283.262 65.4515 281.849C64.9131 271.888 64.9131 261.86 65.4515 251.899C65.6534 247.659 65.99 243.285 68.2109 239.651C69.8935 236.891 72.5855 234.603 72.922 231.372C73.124 229.421 72.3836 227.536 72.3836 225.585C72.3836 223.633 73.5278 221.345 75.4795 221.345L74.6046 220.941C75.2776 216.903 72.7202 212.999 69.6243 210.307C66.5285 207.615 62.7595 205.731 59.7983 202.971C56.3659 199.808 54.0777 195.703 51.924 191.597C47.9532 184.127 44.1844 176.32 43.5113 167.907C43.3094 165.417 43.444 162.86 44.3189 160.571C46.338 155.389 51.722 152.563 56.7023 150.14L56.9043 148.928C58.5195 143.813 64.1056 140.852 69.4224 140.583C74.7392 140.314 79.9213 142.198 84.9689 144.083C93.3143 147.178 102.131 150.678 107.044 158.081C111.822 165.215 110.947 172.888 111.351 180.964C111.688 187.156 113.639 192.338 113.101 198.799C112.899 200.952 112.63 203.106 112.899 205.192C113.505 209.365 116.399 213.268 115.928 217.441L115.389 215.288C119.899 223.498 122.725 232.584 123.667 241.939C124.004 244.968 124.138 248.198 125.686 250.823C127.234 253.447 129.994 255.13 132.147 257.351C138.877 264.485 137.935 275.724 136.32 285.483" fill="#F9F9F9"/>
<path d="M134.705 259.034C133.359 257.082 131.609 255.534 129.792 253.919C127.907 252.236 126.292 250.487 125.552 247.996C124.811 245.439 124.811 242.814 124.475 240.189C124.138 237.43 123.6 234.738 122.994 232.046C121.648 226.527 119.562 221.21 116.937 216.163C116.802 212.528 114.716 209.298 113.976 205.798C113.505 203.645 113.841 201.356 114.043 199.203C114.245 196.982 114.178 194.761 113.909 192.607C113.437 188.502 112.428 184.396 112.293 180.224C112.091 176.186 112.226 172.08 111.62 168.042C111.082 164.004 109.669 160.101 107.246 156.803C105.092 153.842 102.265 151.486 99.1696 149.534C96.0064 147.583 92.5067 146.035 89.0743 144.689C85.1036 143.141 81.0655 141.525 76.9601 140.516C72.6528 139.439 68.009 139.237 63.8363 140.92C60.202 142.4 57.1735 145.025 55.9621 148.794C55.8948 149.063 55.8947 149.332 56.0293 149.534C51.5874 151.688 46.8763 154.178 44.3189 158.553C41.2903 163.735 42.4344 170.465 43.9824 175.916C45.6649 181.906 48.5589 187.56 51.4529 193.011C52.8662 195.636 54.2795 198.193 56.0966 200.482C57.9138 202.837 60.0674 204.789 62.4903 206.471C65.1823 208.356 68.0091 210.038 70.2973 212.394C72.3837 214.615 74.1334 217.576 73.595 220.739C73.595 220.874 73.595 220.941 73.595 221.008C72.5182 221.681 71.7778 222.96 71.5086 224.239C70.9702 226.796 72.3835 229.287 71.8451 231.844C71.374 234.132 69.6243 235.949 68.2783 237.766C66.7976 239.785 65.7881 242.074 65.2497 244.564C64.7113 247.121 64.5093 249.746 64.4419 252.371C64.3073 255.332 64.1728 258.361 64.1728 261.389C64.0382 267.446 64.1728 273.504 64.3747 279.561C64.442 281.109 64.5766 282.724 64.5093 284.339C64.442 285.685 64.0382 286.897 63.3652 288.108C62.1538 290.329 60.4039 292.348 60.0674 294.905C60.0001 295.444 60.202 295.982 60.7404 296.117C61.2115 296.252 61.8845 295.982 61.9518 295.444C62.2883 293.29 63.5671 291.608 64.7113 289.79C65.99 287.637 66.5956 285.483 66.461 282.993C66.2591 277.273 65.99 271.552 66.0573 265.764C66.0573 260.111 66.1245 254.39 66.6629 248.737C66.8648 246.246 67.336 243.689 68.4128 241.468C69.4224 239.382 70.9703 237.699 72.249 235.815C72.922 234.805 73.4604 233.728 73.797 232.584C74.1335 231.238 73.9989 229.825 73.797 228.479C73.595 227.133 73.2585 225.787 73.595 224.441C73.7969 223.835 74.1335 223.162 74.6719 222.758C80.8636 224.172 87.1227 225.652 93.5163 225.181C98.9004 224.777 104.217 223.095 108.794 220.268C110.88 218.989 112.832 217.576 114.582 215.893C114.716 216.163 114.851 216.432 114.985 216.701C114.985 216.97 114.985 217.24 114.918 217.509C114.851 218.182 115.389 218.518 115.86 218.451C117.812 222.422 119.427 226.527 120.571 230.767C121.244 233.325 121.85 235.949 122.254 238.574C122.658 241.199 122.792 243.891 123.196 246.516C123.6 249.006 124.475 251.227 126.158 253.111C127.705 254.928 129.724 256.274 131.34 257.957C134.368 261.12 135.849 265.36 136.32 269.667C136.858 274.85 136.253 280.032 135.378 285.147C135.176 286.425 137.128 286.964 137.329 285.685C138.743 277.071 139.954 266.773 134.705 259.034ZM101.592 221.345C96.343 223.162 90.8915 223.499 85.3728 222.826C82.3442 222.422 79.3157 221.749 76.3544 221.076C76.2871 220.739 76.0179 220.47 75.6141 220.47C76.0179 215.153 72.1143 210.913 68.009 207.885C65.6534 206.135 63.0961 204.654 60.8751 202.702C58.6542 200.751 56.9716 198.462 55.4236 195.972C53.8757 193.482 52.5296 190.79 51.1836 188.165C49.7703 185.406 48.4243 182.647 47.3474 179.753C46.2706 176.926 45.3957 173.965 44.8573 171.003C44.3862 168.109 44.0497 164.879 44.8573 161.985C46.4053 156.399 52.0586 153.505 56.837 151.217C57.0389 151.553 57.4426 151.823 57.9137 151.755C58.9906 151.553 60.202 151.351 61.2788 151.621C62.5575 151.957 63.0288 152.899 63.2307 154.178C63.5672 156.332 63.2306 158.687 62.2883 160.639C61.9518 161.312 61.5481 161.918 61.1442 162.524C60.6058 162.591 60.2693 162.995 60.2693 163.533C59.4617 164.273 58.5869 164.879 57.51 165.283C54.8853 166.292 51.5202 166.562 48.7608 165.889C47.4821 165.552 46.9437 167.504 48.2224 167.84C50.9145 168.513 53.8757 168.379 56.5677 167.706C57.981 167.369 59.2597 166.831 60.4039 166.023C60.9423 168.783 62.6249 171.273 65.0478 172.686C65.1151 172.753 65.1824 172.753 65.2497 172.753C65.5189 173.763 65.8554 174.705 66.2592 175.647C67.4706 178.407 69.7588 181.839 73.1911 181.503C73.4603 181.503 73.6622 181.368 73.8642 181.233C75.2102 182.781 76.96 184.06 78.9118 184.8C75.7486 187.762 74.2681 192.338 75.3449 196.578C75.6814 197.857 77.6331 197.318 77.2966 196.04C76.3544 192.203 77.9023 187.829 81.1327 185.473L81.2001 185.406C81.3347 185.406 81.4692 185.473 81.6038 185.473C84.3632 185.877 87.19 185.541 89.8147 184.531C92.1703 183.589 94.6603 182.041 95.6026 179.551C96.2083 177.935 95.8718 176.388 94.9969 175.176C95.0642 175.109 95.1315 175.109 95.1988 175.042C95.4007 174.907 95.6026 174.84 95.8045 174.705C95.8718 174.705 95.9391 174.638 95.9391 174.638C96.0737 174.571 96.141 174.57 96.2756 174.503C96.4775 174.436 96.6794 174.369 96.9486 174.369C97.0159 174.369 97.0832 174.369 97.1505 174.369C97.2851 174.369 97.3524 174.369 97.487 174.369C97.6216 174.369 97.7562 174.369 97.8235 174.369C97.8908 174.369 97.9581 174.369 97.9581 174.369C98.0254 174.369 98.0254 174.369 98.0927 174.369C98.0254 174.369 98.0254 174.369 97.9581 174.369C98.0254 174.369 98.2273 174.436 98.2946 174.436C98.4292 174.436 98.5639 174.503 98.6985 174.503C99.2369 174.638 99.8426 174.301 99.9099 173.83C100.045 173.292 99.7753 172.753 99.2369 172.619C97.2852 172.013 95.0642 172.484 93.5163 173.763C93.1798 173.561 92.9106 173.359 92.5068 173.224C91.8338 172.955 91.1608 172.753 90.4877 172.686C90.555 172.686 90.555 172.619 90.6223 172.619C91.2953 172.08 91.8337 171.407 92.3049 170.667C93.449 168.984 94.5258 167.302 95.6699 165.687C96.0064 165.216 95.7372 164.543 95.3334 164.273C94.8623 164.004 94.2565 164.206 93.92 164.61C92.9105 166.09 91.901 167.571 90.9588 169.052C90.555 169.657 90.2185 170.196 89.7474 170.667C89.6801 170.734 89.4782 170.936 89.4109 171.003C89.4782 170.936 89.2763 171.138 89.2763 171.138C89.209 171.205 89.1416 171.205 89.0743 171.273C89.0743 171.273 89.007 171.273 89.007 171.34C88.9397 171.34 88.8725 171.407 88.8052 171.407C88.8052 171.407 88.4686 171.407 88.6705 171.407C88.1321 171.34 87.5938 171.542 87.4592 172.08C87.3919 172.35 87.459 172.686 87.6609 172.955C87.5263 172.955 87.459 173.022 87.3244 173.022C87.3917 172.888 87.4592 172.753 87.4592 172.551C87.3919 169.792 85.3055 167.167 82.5461 166.696C82.0077 166.629 81.402 166.831 81.3347 167.369C81.2001 167.84 81.4693 168.513 82.0077 168.581C82.2769 168.648 82.5461 168.715 82.8153 168.782C82.8826 168.782 82.9499 168.85 83.0172 168.85C82.8826 168.783 82.8825 168.782 82.9498 168.782C82.9498 168.782 83.0172 168.783 83.0172 168.85C83.1518 168.917 83.2864 168.984 83.3537 169.052C83.4883 169.119 83.5556 169.186 83.6902 169.254C83.7575 169.321 83.8248 169.321 83.8248 169.388C83.6229 169.254 83.7575 169.388 83.8248 169.388C84.0267 169.59 84.2287 169.792 84.4306 169.994C84.4979 170.061 84.5652 170.128 84.5652 170.128L84.4978 170.061C84.4978 170.129 84.5652 170.129 84.5652 170.196C84.6325 170.33 84.6998 170.398 84.7671 170.532C84.8344 170.667 84.9016 170.802 84.9689 170.869C84.9689 170.936 85.0363 171.004 85.0363 171.071C85.1036 171.34 85.2382 171.542 85.2382 171.811C85.2382 171.878 85.2381 171.946 85.3054 172.013C85.3054 172.148 85.3054 172.282 85.3054 172.417C85.3054 172.753 85.5073 173.157 85.8438 173.292C84.9689 173.628 84.094 174.032 83.2864 174.436C82.1422 174.974 83.1518 176.724 84.2959 176.186C86.3822 175.176 88.9398 173.965 91.2953 174.772C91.8337 174.974 92.3049 175.176 92.6414 175.513C92.7087 175.58 92.7086 175.647 92.7759 175.715C92.8432 175.782 92.9106 175.782 92.9779 175.849C93.7855 176.724 94.122 177.868 93.5163 179.08C92.5068 181.031 90.1511 182.176 88.1994 182.849C85.9784 183.589 83.4884 183.791 81.2001 183.252C76.8928 182.243 73.7296 179.012 72.7874 174.705C72.3163 172.417 72.249 169.994 72.4509 167.706C72.6528 165.552 73.3931 163.331 74.941 161.783C76.6909 160.033 79.181 159.226 81.4692 158.485C84.4305 157.543 87.3917 156.601 90.353 155.659C91.5644 155.255 91.0262 153.303 89.8147 153.707C86.7189 154.717 83.5556 155.659 80.4597 156.668C78.0369 157.476 75.4795 158.418 73.595 160.235C71.7106 162.052 70.8356 164.61 70.4991 167.167C70.1626 169.927 70.2299 172.821 70.903 175.513C71.2395 176.859 71.7778 178.137 72.5181 179.282C70.2972 179.08 68.8839 176.522 68.0763 174.638C66.9995 172.215 66.5957 169.523 66.5284 166.898C66.4611 164.206 66.7976 161.379 67.5379 158.755C67.8744 157.341 68.4801 156.13 69.5569 155.12C70.4991 154.245 71.7779 153.572 72.922 152.967C75.4122 151.755 77.9023 152.496 80.5271 152.563C81.8058 152.63 81.8058 150.611 80.5271 150.544C77.9023 150.409 75.3449 149.736 72.7874 150.813C69.8935 152.024 67.134 153.909 65.9899 156.938C64.9131 159.831 64.5766 163.196 64.5093 166.292C64.5093 167.369 64.5767 168.446 64.7113 169.523C63.2306 168.11 62.3557 166.091 62.2211 164.004C62.2884 163.87 62.423 163.802 62.4903 163.668C63.8363 161.985 64.7785 159.966 65.115 157.812C65.4515 155.659 65.5862 152.899 64.2402 151.082C63.6345 150.207 62.8268 149.736 61.8846 149.467C61.9519 149.332 62.0192 149.198 62.0192 149.063C62.0192 148.794 62.0865 148.525 62.2211 148.188C62.2884 147.986 62.2884 147.919 62.3557 147.852C62.423 147.717 62.4902 147.515 62.6248 147.381C62.9614 146.842 63.4999 146.304 63.9037 145.967C65.2497 144.958 66.7976 144.554 68.4128 144.217C68.9512 144.083 69.2878 143.477 69.0858 143.006C68.9512 142.468 68.4128 142.199 67.8744 142.333C65.9226 142.737 64.0382 143.343 62.4903 144.554C61.0769 145.698 60.1348 147.313 60.0002 149.13C60.0002 149.198 60.0002 149.265 60.0002 149.332C59.1252 149.332 58.2503 149.467 57.4427 149.602C57.4427 149.602 57.4426 149.534 57.3753 149.534C57.5099 149.4 57.6445 149.265 57.7118 149.063C58.7213 145.967 61.3461 143.746 64.3074 142.535C67.8744 141.122 71.6433 141.189 75.3449 141.997C79.383 142.872 83.2864 144.419 87.1899 145.9C90.5549 147.179 93.8527 148.592 96.9486 150.342C99.9771 152.092 102.804 154.245 104.958 156.938C107.38 159.966 108.794 163.533 109.467 167.369C110.072 171.138 110.005 174.974 110.14 178.81C110.274 182.781 110.947 186.685 111.62 190.588C111.957 192.809 112.159 195.097 112.091 197.386C112.024 199.876 111.486 202.366 111.822 204.856C112.159 207.615 113.572 210.24 114.38 212.932C110.813 216.836 106.438 219.662 101.592 221.345ZM95.8719 174.705C95.8719 174.705 95.9392 174.705 95.8719 174.705V174.705ZM88.8052 171.34C88.7379 171.34 88.7379 171.34 88.8052 171.34V171.34ZM120.773 236.555C117.408 238.103 114.043 239.651 110.611 240.93C104.419 243.218 98.0927 244.227 91.5645 243.151C85.0362 242.141 78.9118 239.382 72.922 236.757C71.7106 236.218 72.7874 234.469 73.9315 235.007C77.162 236.421 80.4597 237.901 83.8248 239.045C89.7473 241.132 96.0065 242.208 102.265 241.132C108.457 240.055 114.178 237.43 119.764 234.805C120.908 234.267 121.918 236.017 120.773 236.555ZM108.861 230.969C109.265 231.44 109.803 231.777 110.409 231.979C111.553 232.382 112.966 232.046 113.774 231.104C114.514 230.161 114.851 228.815 114.38 227.671C114.111 226.998 113.774 226.527 113.168 226.123C112.697 225.787 112.024 225.652 111.486 225.652C110.813 225.652 110.14 225.854 109.601 226.191C108.928 226.594 108.524 227.133 108.255 227.873C108.188 228.075 108.188 228.344 108.323 228.546C108.188 228.748 108.053 228.95 108.121 229.152C108.188 229.825 108.39 230.431 108.861 230.969ZM111.284 230.162C111.284 230.162 111.351 230.162 111.418 230.162C111.351 230.162 111.284 230.162 111.284 230.162ZM112.024 230.094C112.024 230.027 112.024 230.027 112.024 230.094V230.094ZM112.293 229.892C112.293 229.892 112.361 229.825 112.361 229.758C112.361 229.825 112.293 229.825 112.293 229.892ZM112.495 229.556L112.562 229.421C112.495 229.488 112.495 229.556 112.495 229.556ZM112.63 229.085C112.63 229.017 112.63 229.017 112.63 229.017C112.63 229.017 112.63 229.017 112.63 229.085ZM112.562 228.344C112.562 228.344 112.562 228.344 112.562 228.277C112.562 228.344 112.562 228.344 112.562 228.344ZM112.428 228.142C112.428 228.142 112.361 228.075 112.361 228.008C112.428 228.075 112.428 228.142 112.428 228.142ZM110.88 227.806C110.813 227.806 110.813 227.806 110.813 227.806C110.813 227.806 110.813 227.806 110.88 227.806ZM110.342 228.21C110.409 228.142 110.476 228.075 110.476 228.008C110.476 228.008 110.543 228.008 110.543 227.941C110.611 227.873 110.678 227.873 110.745 227.806C110.745 227.806 110.813 227.806 110.813 227.739C110.88 227.739 111.015 227.671 111.082 227.671C111.149 227.671 111.149 227.671 111.216 227.671C111.284 227.671 111.351 227.671 111.486 227.671C111.553 227.671 111.553 227.671 111.62 227.671C111.688 227.671 111.822 227.739 111.822 227.739C111.89 227.739 111.89 227.739 111.957 227.806C112.024 227.873 112.091 227.873 112.159 227.941L112.226 228.008L112.293 228.075C112.293 228.075 112.293 228.142 112.361 228.142C112.361 228.21 112.428 228.21 112.428 228.277C112.428 228.277 112.428 228.277 112.495 228.344C112.495 228.412 112.562 228.546 112.562 228.614V228.681C112.562 228.748 112.562 228.883 112.562 228.95C112.562 229.017 112.562 229.085 112.562 229.085C112.562 229.152 112.495 229.287 112.495 229.287C112.495 229.287 112.495 229.354 112.495 229.421V229.488C112.495 229.556 112.428 229.556 112.428 229.623C112.428 229.623 112.361 229.69 112.361 229.758C112.361 229.758 112.361 229.825 112.293 229.825C112.226 229.892 112.226 229.892 112.159 229.96L112.091 230.027C112.024 230.094 111.957 230.094 111.889 230.162H111.822C111.755 230.162 111.755 230.162 111.688 230.162C111.62 230.162 111.553 230.162 111.418 230.162C111.418 230.162 111.418 230.162 111.351 230.162H111.284C111.149 230.162 111.082 230.094 110.947 230.094C110.947 230.094 110.88 230.094 110.88 230.027C110.813 229.959 110.678 229.892 110.611 229.825C110.544 229.758 110.544 229.758 110.476 229.69C110.409 229.623 110.409 229.623 110.342 229.556L110.274 229.488C110.274 229.421 110.207 229.421 110.207 229.354C110.207 229.354 110.207 229.354 110.207 229.287V229.219C110.207 229.152 110.14 229.085 110.14 229.017V228.95C110.14 228.815 110.072 228.748 110.072 228.681C110.14 228.613 110.207 228.546 110.207 228.412C110.207 228.344 110.274 228.344 110.274 228.277C110.274 228.277 110.274 228.21 110.342 228.21Z" fill="url(#paint0_linear_8_2993)"/>
<path d="M155.298 340.062C152.068 331.582 157.317 322.497 161.423 314.353C167.143 302.912 170.845 290.394 172.124 277.674C172.797 270.944 173.201 263.473 178.181 258.897V258.964C181.209 234.197 178.383 208.286 186.863 184.798C188.007 181.702 189.353 178.539 191.843 176.318C194.064 174.232 197.025 173.088 199.919 172.078C205.034 170.396 210.351 169.05 215.735 168.242C220.446 167.502 225.359 167.098 229.868 168.511C233.301 169.588 236.8 171.876 238.483 175.174C239.089 176.385 239.021 178.001 240.166 178.606C241.377 179.212 243.665 178.202 245.213 179.077C246.626 179.885 247.703 181.164 248.78 182.442C250.261 184.26 251.674 186.144 252.953 188.096C253.76 189.24 254.501 190.451 254.77 191.797C255.039 193.076 254.837 194.355 254.635 195.634C252.549 207.95 246.155 219.458 236.733 227.669C234.108 229.957 231.214 232.044 228.32 233.995C225.494 235.88 221.456 237.495 219.033 239.918C217.149 241.802 217.014 245.1 216.475 247.658C215.668 251.561 215.062 255.532 214.658 259.503L215.735 260.58C219.84 261.858 221.388 266.973 220.985 271.213C220.581 275.453 218.898 279.558 218.898 283.866C218.966 290.394 222.936 296.115 226.167 301.835C232.964 313.95 236.464 327.881 236.195 341.745" fill="#F9F9F9"/>
<path d="M254.03 187.828C252.818 186.011 251.472 184.193 250.126 182.444C248.915 180.896 247.703 179.348 246.021 178.338C245.281 177.934 244.54 177.733 243.665 177.665C242.79 177.665 241.983 177.867 241.108 177.732C240.435 177.665 240.233 177.194 240.031 176.588C239.762 175.781 239.56 174.973 239.089 174.165C238.214 172.55 236.868 171.271 235.455 170.127C228.59 164.945 219.37 166.359 211.495 167.907C207.188 168.781 202.881 169.926 198.708 171.406C195.074 172.685 191.641 174.435 189.286 177.598C186.93 180.828 185.652 184.799 184.507 188.568C183.229 192.673 182.286 196.846 181.546 201.086C178.652 218.046 179.258 235.343 177.777 252.504C177.575 254.456 177.373 256.408 177.172 258.36C173.605 261.792 172.326 266.705 171.72 271.416C171.384 273.973 171.182 276.598 170.845 279.156C170.509 282.184 169.97 285.146 169.365 288.107C168.086 294.097 166.336 299.952 164.115 305.605C161.894 311.191 158.933 316.374 156.51 321.825C153.953 327.613 151.934 334.074 154.222 340.265C154.693 341.477 156.645 340.938 156.173 339.727C154.154 334.343 155.702 328.69 157.856 323.642C160.144 318.325 163.038 313.345 165.327 308.028C167.615 302.577 169.432 296.991 170.778 291.27C172.057 285.684 172.797 280.098 173.403 274.377C173.941 269.397 174.681 263.946 178.248 260.177C178.248 260.177 178.248 260.177 178.316 260.177C189.084 263.676 200.996 267.445 212.236 263.475C213.514 263.003 214.928 262.6 216.005 261.657C220.11 263.407 220.514 269.128 219.841 272.964C219.302 275.925 218.427 278.819 218.091 281.781C217.822 284.607 218.225 287.367 219.1 290.059C220.917 295.443 224.35 300.087 226.907 305.134C229.599 310.451 231.618 316.104 233.032 321.892C234.58 328.353 235.32 335.016 235.253 341.679C235.253 342.958 237.272 342.958 237.272 341.679C237.474 329.497 234.849 317.316 229.667 306.278C228.388 303.586 226.907 300.961 225.427 298.337C223.946 295.846 222.466 293.289 221.389 290.53C220.312 287.77 219.773 284.944 220.043 282.05C220.312 278.954 221.321 275.925 221.86 272.897C222.6 268.186 221.658 262.129 217.014 259.908C217.081 259.369 216.947 258.898 216.476 258.427C216.274 258.225 216.139 258.158 215.937 258.158C216.206 255.735 216.61 253.379 217.014 250.956C217.081 250.822 217.081 250.687 217.081 250.485C217.351 249.139 217.552 247.793 217.754 246.447C218.024 244.832 218.226 243.082 219.033 241.602C219.841 240.054 221.456 239.111 222.869 238.237C224.485 237.227 226.167 236.419 227.782 235.477C229.532 234.4 231.282 233.189 232.897 231.977C236.128 229.622 239.156 226.997 241.848 223.969C246.896 218.382 250.799 211.854 253.29 204.788C253.895 203.038 254.434 201.288 254.837 199.471C255.309 197.586 255.78 195.567 255.847 193.616C256.116 191.529 255.241 189.645 254.03 187.828ZM234.041 201.692C233.839 201.692 233.637 201.692 233.436 201.692H233.301C235.185 199.74 236.531 197.115 237.406 194.423C237.676 195.096 238.012 195.769 238.349 196.308C238.012 197.923 237.474 199.538 236.262 200.615C235.791 201.086 235.118 201.423 234.445 201.557C234.378 201.557 234.31 201.557 234.243 201.624C234.243 201.692 234.041 201.692 234.041 201.692ZM211.697 261.59C210.284 262.061 208.87 262.465 207.457 262.734C204.429 263.273 201.266 263.34 198.17 263.071C191.709 262.532 185.45 260.446 179.258 258.427C179.796 253.581 180.2 248.736 180.469 243.89C188.411 249.543 198.17 252.572 207.928 252.437C210.217 252.437 212.505 252.168 214.793 251.831C214.726 252.303 214.658 252.706 214.591 253.177C214.255 255.264 213.985 257.417 213.784 259.571C213.716 260.109 214.053 260.379 214.457 260.513C214.322 260.581 214.12 260.715 213.986 260.783C213.245 261.052 212.505 261.321 211.697 261.59ZM253.559 196.308C253.222 198.125 252.818 199.875 252.28 201.692C250.194 208.691 246.761 215.219 242.117 220.805C237.137 226.795 230.811 231.574 224.013 235.343C221.119 236.958 217.889 238.64 216.745 242.005C216.206 243.621 216.005 245.303 215.668 246.986C215.466 247.928 215.332 248.803 215.13 249.745C205.909 251.428 196.151 250.082 187.671 245.909C185.18 244.697 182.825 243.284 180.671 241.602L180.604 241.534C181.142 230.564 181.344 219.594 182.623 208.691C183.565 200.48 185.248 192.27 188.142 184.463C189.488 180.896 191.305 177.598 194.603 175.511C198.035 173.425 202.208 172.348 206.044 171.339C210.217 170.262 214.457 169.32 218.697 168.849C222.735 168.378 226.975 168.378 230.878 169.858C233.907 171.07 236.666 173.223 237.878 176.252C237.205 176.319 236.599 176.992 237.07 177.732C237.676 178.675 237.877 179.751 237.945 180.896C236.06 183.722 235.657 187.357 236.33 190.722C236.195 191.327 236.06 191.933 235.858 192.539C234.714 196.644 232.561 201.153 228.321 202.634C228.388 202.499 228.523 202.365 228.59 202.23C230.071 199.74 230.945 196.913 231.888 194.221C232.964 191.125 233.907 188.03 234.378 184.799C234.916 181.232 234.782 177.665 233.705 174.3C233.301 173.089 231.349 173.627 231.753 174.838C233.57 180.357 232.426 186.145 230.676 191.529C229.869 194.154 228.926 196.779 227.85 199.269C226.84 201.49 225.561 203.576 223.34 204.72C221.321 205.73 218.966 205.797 216.879 205.057C218.158 204.047 219.437 203.038 220.514 201.826C221.994 200.211 222.936 198.259 223.61 196.173C224.35 193.885 225.09 191.597 225.561 189.308C226.638 184.597 226.705 179.415 223.879 175.31C223.138 174.233 221.389 175.242 222.129 176.319C224.215 179.28 224.552 183.049 224.081 186.616C223.812 188.568 223.273 190.452 222.735 192.404C222.196 194.154 221.725 195.971 220.985 197.586C220.177 199.336 219.033 200.682 217.62 201.894C216.274 203.038 214.86 204.249 213.38 205.191C210.89 206.807 206.313 208.355 204.967 204.518C204.294 202.567 204.9 200.48 205.707 198.596C206.246 197.25 207.188 195.298 208.871 195.298C209.544 195.298 210.015 194.625 209.813 194.019C209.005 191.327 209.207 188.501 210.486 185.943C210.62 185.674 210.62 185.338 210.553 185.136C211.765 183.79 212.774 182.242 213.582 180.626C213.784 180.155 213.716 179.482 213.245 179.213C212.774 178.944 212.101 179.078 211.832 179.55C211.361 180.559 210.755 181.569 210.082 182.511C210.015 182.578 209.947 182.713 209.88 182.78L209.813 182.847C209.745 182.915 209.745 182.915 209.678 182.982C209.476 183.184 209.342 183.453 209.14 183.655C209.005 183.79 208.871 183.924 208.736 184.059C205.842 182.915 205.169 179.213 204.698 176.454C204.631 175.915 203.958 175.646 203.486 175.781C202.948 175.915 202.679 176.454 202.813 176.992C203.15 178.944 203.486 180.963 204.496 182.713C205.236 183.992 206.313 185.068 207.659 185.741C207.659 185.943 207.794 186.212 207.928 186.347C207.996 186.414 208.063 186.482 208.198 186.482C207.457 188.703 207.255 191.058 207.726 193.346C206.448 193.75 205.505 194.827 204.765 195.971C203.688 197.788 202.881 200.009 202.813 202.163C202.746 203.98 203.285 205.999 204.631 207.278C206.178 208.759 208.332 208.96 210.284 208.557C212.034 208.22 213.716 207.345 215.197 206.268C217.485 207.48 220.177 207.749 222.667 207.076C224.417 206.605 225.898 205.595 227.109 204.317C227.311 204.653 227.715 204.855 228.186 204.72C229.532 204.384 230.744 203.845 231.82 203.105C233.772 204.047 236.06 203.576 237.743 202.23C239.022 201.153 239.829 199.673 240.3 198.057C240.368 198.125 240.502 198.192 240.57 198.259C242.925 199.673 245.819 199.336 248.309 200.346C249.521 200.817 250.059 198.865 248.848 198.394C246.761 197.519 244.338 197.721 242.252 196.846C240.098 195.904 239.291 193.279 238.752 191.193C237.676 187.087 238.281 182.107 242.117 179.684C242.589 179.684 242.992 179.617 243.463 179.617C244.406 179.617 245.079 179.819 245.819 180.357C247.367 181.569 248.578 183.319 249.79 184.866C251.069 186.549 252.347 188.232 253.357 190.049C254.232 192.135 253.962 194.087 253.559 196.308ZM187.065 252.437C187.132 252.908 187.132 253.447 186.863 253.85C186.594 254.254 186.257 254.523 185.786 254.658C184.979 254.86 184.171 254.591 183.565 254.052C183.296 253.783 183.027 253.447 182.959 253.11C182.825 252.706 182.892 252.302 183.027 251.899C183.027 251.831 183.094 251.764 183.094 251.697C183.296 251.226 183.767 250.889 184.238 250.822C184.44 250.755 184.642 250.755 184.844 250.755C185.046 250.755 185.315 250.822 185.517 250.889C185.921 251.024 186.257 251.226 186.527 251.495C186.728 251.697 186.998 252.101 187.065 252.437ZM218.36 212.46C221.389 216.633 221.725 222.488 219.235 227.064C218.629 228.209 216.879 227.199 217.485 226.055C219.639 222.084 219.235 217.171 216.61 213.537C215.87 212.393 217.62 211.383 218.36 212.46Z" fill="url(#paint1_linear_8_2993)"/>
<path d="M122.657 228.546C123.532 220.807 127.032 213.471 132.416 207.885C133.089 207.145 133.897 206.337 133.964 205.327C134.031 204.183 133.089 203.174 132.685 202.097C131.608 199.472 133.291 196.511 133.56 193.684C133.829 190.656 132.349 187.762 132.416 184.733C132.416 179.618 137.396 175.042 142.511 175.378L140.896 173.763C146.415 158.216 132.887 145.294 126.695 132.103C124.542 127.527 122.59 122.614 123.128 117.634C123.667 112.653 127.638 107.673 132.685 107.74C131.878 102.423 137.531 97.1739 142.78 98.4527C144.194 96.0971 145.674 93.5398 148.097 92.3283C150.52 91.1169 154.154 91.7226 155.164 94.28C156.914 92.3283 159.135 90.5112 161.759 90.5112C164.25 90.5112 166.47 92.261 167.749 94.3474C169.028 96.4337 169.566 98.9238 170.105 101.347C174.21 98.5873 180.267 100.876 182.959 105.048C185.651 109.221 185.719 114.538 184.911 119.451C184.036 124.7 182.286 129.815 179.729 134.459C176.902 139.507 172.595 144.42 170.98 150.006C169.095 156.332 171.451 163.533 173.335 169.59L173.133 168.11C176.162 172.821 177.643 178.474 177.306 183.993C177.239 184.935 177.171 186.012 177.575 186.887C178.046 187.896 179.123 188.502 179.931 189.31C180.738 190.117 181.277 191.463 180.469 192.338" fill="#F9F9F9"/>
<path d="M179.662 136.612C182.758 131.497 184.911 125.777 185.921 119.854C186.796 114.537 186.863 108.413 183.431 103.904C180.604 100.202 175.287 97.981 170.845 99.8655C169.971 96.1639 168.625 92.1931 164.99 90.3759C161.76 88.6934 158.597 89.9048 156.039 92.0585C155.703 91.7219 155.164 91.7893 154.76 92.1258C153.213 90.7798 150.991 90.4433 148.905 90.9817C145.809 91.8566 143.858 94.6832 142.31 97.308C142.242 97.308 142.175 97.3754 142.108 97.3754C136.791 96.7697 131.811 101.346 131.609 106.596C131.474 106.663 131.34 106.73 131.205 106.798C131.138 106.798 131.138 106.865 131.07 106.865C127.032 107.605 123.869 111.105 122.658 115.008C120.84 120.594 123.061 126.651 125.417 131.699C129.522 140.65 136.185 148.255 139.483 157.543C141.367 162.725 141.704 168.176 139.887 173.426C139.752 173.897 139.887 174.234 140.223 174.503C137.262 175.041 134.57 176.926 132.955 179.483C131.945 181.031 131.34 182.916 131.34 184.733C131.34 187.156 132.214 189.511 132.484 191.867C132.686 194.155 131.878 196.174 131.474 198.395C131.272 199.404 131.205 200.347 131.407 201.356C131.609 202.5 132.282 203.375 132.753 204.452C133.157 205.394 132.685 206.067 132.08 206.807C131.339 207.615 130.599 208.423 129.859 209.23C128.446 210.913 127.167 212.73 126.09 214.682C123.667 218.989 122.186 223.7 121.648 228.546C121.513 229.825 123.532 229.825 123.667 228.546C124.138 224.44 125.417 220.335 127.301 216.701C128.244 214.884 129.388 213.067 130.667 211.451C131.272 210.711 131.878 209.971 132.551 209.23C133.224 208.49 134.099 207.75 134.57 206.807C135.041 206 135.108 205.058 134.772 204.115C134.503 203.24 133.83 202.5 133.493 201.558C132.753 199.539 133.83 197.318 134.234 195.299C134.705 193.145 134.435 191.059 133.964 188.905C133.56 186.886 133.022 184.867 133.561 182.848C134.57 179.012 138.406 176.118 142.377 176.32C142.713 176.32 142.915 176.253 143.05 176.051C148.972 177.262 155.097 177.329 161.019 176.185C163.846 175.647 166.74 174.907 169.365 173.762C170.913 173.089 172.393 172.08 173.336 170.734C174.951 173.964 175.96 177.464 176.162 181.098C176.23 182.175 176.23 183.185 176.162 184.261C176.095 185.406 176.095 186.55 176.701 187.559C177.172 188.367 177.845 188.905 178.585 189.444C178.989 189.78 180.2 190.857 179.662 191.53C178.854 192.54 180.268 193.953 181.075 192.943C182.556 191.059 181.21 189.04 179.662 187.761C178.72 187.021 178.114 186.348 178.114 185.069C178.114 183.79 178.249 182.579 178.181 181.3C177.979 176.387 176.431 171.609 173.807 167.503C173.739 167.369 173.605 167.234 173.47 167.167C171.922 162.119 170.374 156.803 171.384 151.553C172.73 146.034 176.701 141.391 179.662 136.612ZM164.452 92.3278C167.211 94.0103 168.221 97.2408 168.894 100.269C168.288 100.337 167.615 100.471 167.077 100.606C166.067 100.808 164.99 101.212 164.115 101.75C162.164 103.029 161.423 105.25 161.894 107.538C162.567 111.037 165.663 113.259 169.028 114.066C168.894 114.335 168.894 114.672 169.028 114.941C168.961 115.008 168.894 115.143 168.826 115.277C168.692 115.816 168.49 116.354 168.355 116.893C168.288 117.162 168.221 117.431 168.086 117.7C168.019 117.902 168.019 118.104 167.884 118.239C167.682 118.441 167.279 118.508 167.009 118.575C166.606 118.643 166.202 118.71 165.798 118.71C164.317 118.777 162.904 118.373 161.692 117.633C161.692 117.431 161.76 117.297 161.76 117.095C161.894 114.335 160.952 111.576 160.683 108.817C160.414 106.125 160.077 103.432 159.404 100.74C158.799 98.3849 157.991 96.0293 157.049 93.8084C159.068 91.9912 161.692 90.6452 164.452 92.3278ZM148.972 93.068C150.655 92.3277 153.482 92.597 154.289 94.5487C154.491 95.0198 154.962 95.3563 155.434 95.289C156.308 97.3753 156.981 99.529 157.52 101.75C158.193 104.644 158.462 107.538 158.799 110.432C159.068 112.787 159.943 115.21 159.673 117.566L159.606 117.633C159.472 117.902 159.404 118.171 159.539 118.373C159.539 118.441 159.472 118.575 159.472 118.643C159.202 119.652 158.597 120.662 157.52 121.065C156.51 121.469 155.434 121.335 154.76 120.46C154.559 120.191 154.289 120.123 154.02 120.123C153.212 114.672 151.328 109.22 148.771 104.375C147.559 102.086 146.28 99.5962 144.194 97.981C145.405 96.0966 146.819 93.9429 148.972 93.068ZM142.579 99.4616C142.646 99.4616 142.646 99.4616 142.713 99.4616C144.396 100.673 145.473 102.558 146.482 104.375C147.694 106.596 148.771 108.884 149.646 111.239C150.52 113.662 151.194 116.152 151.732 118.643C152.136 120.46 152.674 122.748 151.934 124.632C151.463 125.844 150.386 126.113 149.174 126.046C147.963 125.978 146.819 125.777 145.675 125.44C145.473 123.757 144.665 121.94 144.194 120.527C142.983 117.095 141.637 113.46 139.819 110.297C138.541 108.076 136.185 105.99 133.628 106.057C134.099 101.952 138.541 98.5194 142.579 99.4616ZM172.191 169.186C171.384 170.801 169.634 171.743 168.019 172.349C165.461 173.359 162.769 174.032 160.077 174.503C154.559 175.445 148.905 175.31 143.454 174.166C143.05 174.099 142.781 174.234 142.579 174.436C142.31 174.436 142.04 174.436 141.771 174.436C141.839 174.368 141.906 174.234 141.973 174.099C143.117 170.869 143.454 167.503 143.185 164.206C143.319 164.34 143.588 164.475 143.858 164.475C152.809 164.744 161.827 162.456 169.499 157.812C169.836 161.648 171.047 165.484 172.191 169.186ZM169.701 151.015C169.365 152.495 169.298 153.976 169.298 155.524C161.692 160.302 152.741 162.725 143.79 162.388C143.387 162.388 143.117 162.59 142.983 162.792C142.848 161.917 142.713 161.043 142.511 160.168C141.367 155.591 139.214 151.351 136.858 147.313C134.435 143.14 131.743 139.169 129.455 134.997C126.898 130.286 124.206 124.902 124.206 119.45C124.206 114.605 127.369 108.749 132.82 108.749C133.291 108.749 133.628 108.48 133.762 108.076C135.647 107.942 137.397 109.826 138.272 111.441C139.685 113.999 140.829 116.825 141.838 119.585C142.377 121.065 142.848 122.479 143.319 123.959C143.521 124.565 143.79 125.373 143.858 126.046C143.858 126.113 143.858 126.18 143.858 126.248C143.858 126.719 143.723 127.123 143.319 127.459C141.569 128.94 138.541 127.526 136.993 126.382C134.435 124.498 132.887 121.469 131.474 118.71C130.868 117.566 129.119 118.575 129.724 119.719C130.33 120.931 130.936 122.075 131.676 123.219C131.541 123.286 131.407 123.286 131.205 123.354C130.936 123.421 130.666 123.488 130.397 123.488C130.195 123.556 130.128 123.556 129.792 123.556C128.715 123.623 127.773 123.623 126.83 123.354C126.292 123.219 125.686 123.488 125.619 124.027C125.484 124.565 125.754 125.171 126.292 125.238C128.446 125.709 130.734 125.575 132.82 124.834C133.628 125.979 134.637 126.988 135.714 127.863C137.935 129.545 141.435 130.824 144.059 129.276C144.867 128.805 145.338 128.132 145.607 127.392C147.896 128.065 150.79 128.469 152.607 127.055C153.953 125.978 154.357 124.296 154.357 122.613C155.703 123.421 157.52 123.354 158.866 122.613C160.01 121.94 160.818 120.863 161.221 119.652C162.769 120.46 164.519 120.796 166.269 120.662C167.278 120.594 168.625 120.392 169.365 119.517C169.836 118.979 169.971 118.373 170.172 117.7C170.24 117.431 170.374 117.095 170.442 116.825C171.788 118.306 173.605 119.316 175.624 119.719C176.162 119.787 176.768 119.585 176.835 119.046C176.97 118.575 176.701 117.902 176.162 117.835C175.893 117.768 175.557 117.7 175.287 117.633C175.153 117.566 175.018 117.566 174.884 117.498C174.816 117.498 174.682 117.431 174.614 117.431C174.076 117.162 173.537 116.893 172.999 116.556C172.932 116.489 172.932 116.489 172.865 116.422L172.797 116.354C172.663 116.287 172.595 116.153 172.461 116.085C172.259 115.883 172.057 115.681 171.855 115.479C171.788 115.345 171.653 115.277 171.586 115.143L171.518 115.076C171.451 115.008 171.451 115.008 171.384 114.941C171.249 114.806 171.182 114.672 171.115 114.47C171.451 114.47 171.788 114.537 172.124 114.47C175.153 114.403 178.047 113.259 180.604 111.845C181.748 111.239 180.739 109.49 179.595 110.095C175.489 112.384 169.769 113.864 165.865 110.365C164.317 109.019 163.106 106.528 164.317 104.509C164.856 103.634 165.731 103.163 166.673 102.894C167.211 102.692 167.75 102.625 168.288 102.49C168.826 102.423 169.365 102.221 169.836 102.356C170.105 102.49 170.374 102.423 170.576 102.356C170.644 102.356 170.711 102.288 170.778 102.288C174.48 99.9329 179.527 101.885 181.95 105.25C185.113 109.624 184.777 115.681 183.767 120.729C182.623 126.45 180.402 131.834 177.306 136.747C174.413 141.189 170.778 145.63 169.701 151.015ZM156.981 148.592C149.376 146.236 147.963 136.477 149.107 129.747C149.309 128.469 151.261 129.007 151.059 130.286C150.049 135.872 151.059 144.688 157.52 146.64C158.798 147.044 158.26 148.995 156.981 148.592Z" fill="url(#paint2_linear_8_2993)"/>
<path d="M24.1953 46.4273C23.455 45.3505 25.2047 44.3409 25.945 45.4178C31.8003 53.8977 38.5304 61.6373 46.1355 68.5694C47.0777 69.4443 45.6645 70.8577 44.7222 69.9828C36.9826 62.9834 30.1178 55.0419 24.1953 46.4273ZM235.387 34.1111C227.715 45.2831 220.514 56.7244 213.716 68.4348C211.764 71.7999 209.88 75.165 207.995 78.53C207.39 79.6742 209.14 80.6837 209.745 79.5396C216.274 67.6945 223.273 56.0514 230.676 44.7447C232.762 41.5143 234.916 38.2838 237.137 35.1206C237.877 34.0438 236.127 33.0343 235.387 34.1111ZM168.826 0.460365C165.797 4.96956 168.22 11.6996 173.268 13.5168C174.412 13.9206 174.883 12.3054 174.076 11.6997C170.105 8.80571 163.98 10.8921 162.298 15.4013C161.827 16.6127 163.778 17.1511 164.25 15.9397C166.067 11.2959 162.971 5.50801 158.125 4.36388C158.058 5.0369 157.923 5.70984 157.856 6.31556C161.894 6.78667 165.932 5.44061 168.961 2.74855C169.903 1.87363 168.49 0.460398 167.547 1.33532C164.923 3.69087 161.356 4.70032 157.856 4.29651C156.712 4.16191 156.51 6.04629 157.587 6.24819C161.423 7.19041 163.711 11.6323 162.298 15.3339C162.971 15.5358 163.576 15.6704 164.25 15.8723C165.528 12.5073 170.239 11.2959 173.066 13.3822C173.335 12.7765 173.604 12.1708 173.874 11.5651C169.97 10.2191 168.355 4.90226 170.643 1.46989C171.316 0.393063 169.566 -0.616458 168.826 0.460365ZM0.101358 93.4036C0.707071 94.615 1.85123 95.2881 2.99535 95.8938C4.07218 96.4996 4.947 97.1725 5.41811 98.3166C6.29302 100.336 5.88918 102.893 4.20665 104.374C4.81236 104.643 5.35084 104.845 5.95655 105.114C6.15845 102.96 8.58134 101.614 10.5331 101.547C13.3597 101.412 15.9171 103.028 18.2054 104.441C18.4746 103.835 18.7438 103.23 19.013 102.624C16.5228 101.614 14.7731 99.057 14.7731 96.3649C14.7731 93.6056 16.5229 91.1827 18.9458 90.1059C19.9553 89.6347 19.3495 88.2887 18.4073 88.2214C16.6575 88.0868 15.2442 89.1637 14.1001 90.3078C12.8887 91.4519 11.8117 92.4614 10.2638 92.9325C7.30251 93.8074 4.00484 92.8652 2.1204 90.4424C1.31278 89.4328 -0.100612 90.8462 0.707005 91.8558C2.86065 94.4805 6.42763 95.6245 9.7927 95.0861C11.4079 94.8169 12.9559 94.1439 14.1673 93.067C15.446 91.9902 16.6574 90.1058 18.5419 90.2404C18.34 89.6347 18.2053 88.9617 18.0034 88.3559C14.8403 89.7693 12.6867 93.1344 12.8213 96.6341C12.9559 100.201 15.3114 103.297 18.5419 104.576C19.6187 104.979 20.2917 103.297 19.3495 102.759C16.4555 101.009 13.2252 99.1243 9.7255 99.73C6.89884 100.201 4.34128 102.22 4.07208 105.181C4.00478 106.124 5.21627 106.393 5.82198 105.922C7.90832 104.105 8.51407 101.009 7.70645 98.4512C7.30264 97.1724 6.5623 96.0284 5.48547 95.1535C4.34135 94.2785 2.65885 93.8748 1.98583 92.5288C1.31282 91.1827 -0.437054 92.1921 0.101358 93.4036ZM114.716 11.6323C114.379 22.9389 115.254 34.2457 117.34 45.3504C117.61 46.6291 119.494 46.0907 119.292 44.812C117.273 33.8418 116.398 22.737 116.735 11.6323C116.802 10.3536 114.783 10.3536 114.716 11.6323ZM234.445 109.085C235.454 110.027 237.07 109.758 237.945 108.748C238.416 108.143 238.685 107.47 238.685 106.662C238.685 105.922 238.483 105.181 238.281 104.508C238.146 104.037 237.743 103.768 237.339 103.768C236.195 103.701 235.051 103.701 233.974 103.634C233.435 103.634 232.964 104.105 232.964 104.643C232.964 105.181 233.435 105.653 233.974 105.653C235.118 105.72 236.262 105.72 237.339 105.787C237.002 105.518 236.666 105.316 236.397 105.047C236.464 105.316 236.531 105.585 236.599 105.854C236.599 105.989 236.666 106.124 236.666 106.258V106.326C236.666 106.191 236.666 106.124 236.666 106.191C236.666 106.258 236.666 106.325 236.666 106.393C236.666 106.527 236.666 106.662 236.666 106.797V106.864C236.666 106.998 236.666 106.931 236.666 106.797C236.666 106.797 236.666 106.931 236.599 106.999C236.599 107.066 236.599 107.133 236.531 107.2V107.268C236.464 107.402 236.531 107.335 236.599 107.2C236.531 107.268 236.531 107.335 236.464 107.402C236.599 107.2 236.599 107.268 236.531 107.335C236.531 107.402 236.464 107.402 236.464 107.402C236.464 107.402 236.397 107.47 236.329 107.47C236.531 107.268 236.464 107.335 236.397 107.402C236.329 107.47 236.262 107.47 236.127 107.537C235.993 107.604 236.329 107.47 236.195 107.537C236.128 107.537 236.127 107.537 236.06 107.604C235.993 107.604 235.993 107.604 235.926 107.604C235.724 107.672 236.195 107.604 235.993 107.604C235.926 107.604 235.926 107.604 235.858 107.604C235.656 107.604 235.926 107.604 235.993 107.604C235.993 107.604 235.858 107.604 235.858 107.537C235.656 107.47 235.993 107.604 235.926 107.604C235.926 107.604 235.858 107.537 235.791 107.537C235.724 107.537 235.993 107.739 235.858 107.537C235.455 107.133 234.781 107.133 234.445 107.537C234.108 108.075 234.041 108.748 234.445 109.085ZM101.592 36.1301C103.005 40.7739 104.418 45.4851 105.832 50.1289C106.236 51.3403 108.187 50.8691 107.784 49.5904C106.37 44.9466 104.957 40.2355 103.544 35.5917C103.207 34.3803 101.255 34.9187 101.592 36.1301ZM43.2415 57.0608C45.1259 58.9452 46.9431 60.7624 48.8275 62.6468C49.2313 63.0506 49.9044 63.0506 50.2409 62.6468C50.5774 62.243 50.6447 61.6374 50.2409 61.2336C48.3565 59.3492 46.5393 57.532 44.6549 55.6475C44.2511 55.2437 43.578 55.2437 43.2415 55.6475C42.905 55.9841 42.8377 56.657 43.2415 57.0608ZM210.62 53.0227C208.399 56.3878 206.246 59.7528 204.025 63.1179C203.284 64.1947 205.034 65.2043 205.774 64.1274C207.995 60.7624 210.149 57.3973 212.37 54.0322C213.11 52.9554 211.361 51.8786 210.62 53.0227Z" fill="url(#paint3_linear_8_2993)"/>
<defs>
<linearGradient id="paint0_linear_8_2993" x1="42.4214" y1="218.111" x2="138.545" y2="218.111" gradientUnits="userSpaceOnUse">
<stop stop-color="#D8222A"/>
<stop offset="0.943757" stop-color="#181D4C"/>
</linearGradient>
<linearGradient id="paint1_linear_8_2993" x1="153.223" y1="254.779" x2="255.896" y2="254.779" gradientUnits="userSpaceOnUse">
<stop stop-color="#D8222A"/>
<stop offset="0.943757" stop-color="#181D4C"/>
</linearGradient>
<linearGradient id="paint2_linear_8_2993" x1="121.642" y1="159.719" x2="186.428" y2="159.719" gradientUnits="userSpaceOnUse">
<stop stop-color="#D8222A"/>
<stop offset="0.943757" stop-color="#181D4C"/>
</linearGradient>
<linearGradient id="paint3_linear_8_2993" x1="-5.61013e-08" y1="54.969" x2="238.685" y2="54.969" gradientUnits="userSpaceOnUse">
<stop stop-color="#D8222A"/>
<stop offset="0.943757" stop-color="#181D4C"/>
</linearGradient>
</defs>
</svg>
