<svg width="20" height="20" viewBox="0 0 20 20" fill="none" xmlns="http://www.w3.org/2000/svg">
<path d="M7.35091 9.39555H3.2112C2.66506 9.38471 2.14494 9.16012 1.76257 8.77001C1.3802 8.3799 1.16608 7.85539 1.16618 7.30913V3.16942C1.17488 2.62183 1.39853 2.09961 1.78887 1.71547C2.17921 1.33132 2.70494 1.11606 3.2526 1.11613H7.39231C7.94566 1.11613 8.47635 1.33594 8.86763 1.72722C9.25891 2.1185 9.47872 2.64919 9.47872 3.20254V7.34225C9.47442 7.61696 9.4159 7.88812 9.30652 8.14015C9.19714 8.39219 9.03906 8.62014 8.84136 8.81092C8.64365 9.0017 8.41022 9.15156 8.15444 9.25188C7.89867 9.35221 7.6256 9.40103 7.35091 9.39555ZM3.2112 2.35804C2.99162 2.35804 2.78103 2.44527 2.62576 2.60054C2.47049 2.75581 2.38326 2.9664 2.38326 3.18598V7.32569C2.38326 7.54528 2.47049 7.75587 2.62576 7.91113C2.78103 8.0664 2.99162 8.15363 3.2112 8.15363H7.35091C7.5705 8.15363 7.78109 8.0664 7.93636 7.91113C8.09162 7.75587 8.17885 7.54528 8.17885 7.32569V3.18598C8.17885 2.9664 8.09162 2.75581 7.93636 2.60054C7.78109 2.44527 7.5705 2.35804 7.35091 2.35804H3.2112ZM16.8391 9.39555H12.6994C12.1461 9.39555 11.6154 9.17573 11.2241 8.78445C10.8328 8.39317 10.613 7.86248 10.613 7.30913V3.16942C10.613 2.61607 10.8328 2.08538 11.2241 1.6941C11.6154 1.30283 12.1461 1.08301 12.6994 1.08301H16.8391C17.3925 1.08301 17.9232 1.30283 18.3144 1.6941C18.7057 2.08538 18.9255 2.61607 18.9255 3.16942V7.30913C18.9257 7.85539 18.7115 8.3799 18.3292 8.77001C17.9468 9.16012 17.4267 9.38471 16.8805 9.39555H16.8391ZM12.6994 2.35804C12.4798 2.35804 12.2692 2.44527 12.114 2.60054C11.9587 2.75581 11.8715 2.9664 11.8715 3.18598V7.32569C11.8715 7.54528 11.9587 7.75587 12.114 7.91113C12.2692 8.0664 12.4798 8.15363 12.6994 8.15363H16.8391C17.0587 8.15363 17.2693 8.0664 17.4246 7.91113C17.5798 7.75587 17.6671 7.54528 17.6671 7.32569V3.18598C17.6671 2.9664 17.5798 2.75581 17.4246 2.60054C17.2693 2.44527 17.0587 2.35804 16.8391 2.35804H12.6994ZM16.7895 18.9169H12.7739C12.2206 18.9169 11.6899 18.6971 11.2986 18.3058C10.9073 17.9145 10.6875 17.3838 10.6875 16.8305V12.6908C10.6875 12.1374 10.9073 11.6067 11.2986 11.2154C11.6899 10.8242 12.2206 10.6043 12.7739 10.6043H16.8722C17.4256 10.6043 17.9563 10.8242 18.3476 11.2154C18.7388 11.6067 18.9587 12.1374 18.9587 12.6908V16.8305C18.9587 17.3838 18.7388 17.9145 18.3476 18.3058C17.9563 18.6971 17.4256 18.9169 16.8722 18.9169H16.7895ZM12.6911 11.8794C12.4716 11.8794 12.261 11.9666 12.1057 12.1219C11.9504 12.2771 11.8632 12.4877 11.8632 12.7073V16.847C11.8632 17.0666 11.9504 17.2772 12.1057 17.4325C12.261 17.5877 12.4716 17.675 12.6911 17.675H16.7895C17.009 17.675 17.2196 17.5877 17.3749 17.4325C17.5302 17.2772 17.6174 17.0666 17.6174 16.847V12.7073C17.6174 12.4877 17.5302 12.2771 17.3749 12.1219C17.2196 11.9666 17.009 11.8794 16.7895 11.8794H12.6911ZM7.26812 18.9169H3.12841C2.57506 18.9169 2.04437 18.6971 1.65309 18.3058C1.26181 17.9145 1.04199 17.3838 1.04199 16.8305V12.6908C1.04199 12.1374 1.26181 11.6067 1.65309 11.2154C2.04437 10.8242 2.57506 10.6043 3.12841 10.6043H7.26812C7.82147 10.6043 8.35216 10.8242 8.74343 11.2154C9.13471 11.6067 9.35453 12.1374 9.35453 12.6908V16.8305C9.35496 17.3698 9.14654 17.8883 8.77299 18.2773C8.39944 18.6662 7.88979 18.8955 7.35091 18.9169H7.26812ZM3.12841 11.8794C2.90882 11.8794 2.69823 11.9666 2.54296 12.1219C2.38769 12.2771 2.30046 12.4877 2.30046 12.7073V16.847C2.30046 17.0666 2.38769 17.2772 2.54296 17.4325C2.69823 17.5877 2.90882 17.675 3.12841 17.675H7.26812C7.4877 17.675 7.69829 17.5877 7.85356 17.4325C8.00883 17.2772 8.09606 17.0666 8.09606 16.847V12.7073C8.09606 12.4877 8.00883 12.2771 7.85356 12.1219C7.69829 11.9666 7.4877 11.8794 7.26812 11.8794H3.12841Z" fill="white"/>
<path d="M7.35091 9.39555H3.2112C2.66506 9.38471 2.14494 9.16012 1.76257 8.77001C1.3802 8.3799 1.16608 7.85539 1.16618 7.30913V3.16942C1.17488 2.62183 1.39853 2.09961 1.78887 1.71547C2.17921 1.33132 2.70494 1.11606 3.2526 1.11613H7.39231C7.94566 1.11613 8.47635 1.33594 8.86763 1.72722C9.25891 2.1185 9.47872 2.64919 9.47872 3.20254V7.34225C9.47442 7.61696 9.4159 7.88812 9.30652 8.14015C9.19714 8.39219 9.03906 8.62014 8.84136 8.81092C8.64365 9.0017 8.41022 9.15156 8.15444 9.25188C7.89867 9.35221 7.6256 9.40103 7.35091 9.39555ZM3.2112 2.35804C2.99162 2.35804 2.78103 2.44527 2.62576 2.60054C2.47049 2.75581 2.38326 2.9664 2.38326 3.18598V7.32569C2.38326 7.54528 2.47049 7.75587 2.62576 7.91113C2.78103 8.0664 2.99162 8.15363 3.2112 8.15363H7.35091C7.5705 8.15363 7.78109 8.0664 7.93636 7.91113C8.09162 7.75587 8.17885 7.54528 8.17885 7.32569V3.18598C8.17885 2.9664 8.09162 2.75581 7.93636 2.60054C7.78109 2.44527 7.5705 2.35804 7.35091 2.35804H3.2112ZM16.8391 9.39555H12.6994C12.1461 9.39555 11.6154 9.17573 11.2241 8.78445C10.8328 8.39317 10.613 7.86248 10.613 7.30913V3.16942C10.613 2.61607 10.8328 2.08538 11.2241 1.6941C11.6154 1.30283 12.1461 1.08301 12.6994 1.08301H16.8391C17.3925 1.08301 17.9232 1.30283 18.3144 1.6941C18.7057 2.08538 18.9255 2.61607 18.9255 3.16942V7.30913C18.9257 7.85539 18.7115 8.3799 18.3292 8.77001C17.9468 9.16012 17.4267 9.38471 16.8805 9.39555H16.8391ZM12.6994 2.35804C12.4798 2.35804 12.2692 2.44527 12.114 2.60054C11.9587 2.75581 11.8715 2.9664 11.8715 3.18598V7.32569C11.8715 7.54528 11.9587 7.75587 12.114 7.91113C12.2692 8.0664 12.4798 8.15363 12.6994 8.15363H16.8391C17.0587 8.15363 17.2693 8.0664 17.4246 7.91113C17.5798 7.75587 17.6671 7.54528 17.6671 7.32569V3.18598C17.6671 2.9664 17.5798 2.75581 17.4246 2.60054C17.2693 2.44527 17.0587 2.35804 16.8391 2.35804H12.6994ZM16.7895 18.9169H12.7739C12.2206 18.9169 11.6899 18.6971 11.2986 18.3058C10.9073 17.9145 10.6875 17.3838 10.6875 16.8305V12.6908C10.6875 12.1374 10.9073 11.6067 11.2986 11.2154C11.6899 10.8242 12.2206 10.6043 12.7739 10.6043H16.8722C17.4256 10.6043 17.9563 10.8242 18.3476 11.2154C18.7388 11.6067 18.9587 12.1374 18.9587 12.6908V16.8305C18.9587 17.3838 18.7388 17.9145 18.3476 18.3058C17.9563 18.6971 17.4256 18.9169 16.8722 18.9169H16.7895ZM12.6911 11.8794C12.4716 11.8794 12.261 11.9666 12.1057 12.1219C11.9504 12.2771 11.8632 12.4877 11.8632 12.7073V16.847C11.8632 17.0666 11.9504 17.2772 12.1057 17.4325C12.261 17.5877 12.4716 17.675 12.6911 17.675H16.7895C17.009 17.675 17.2196 17.5877 17.3749 17.4325C17.5302 17.2772 17.6174 17.0666 17.6174 16.847V12.7073C17.6174 12.4877 17.5302 12.2771 17.3749 12.1219C17.2196 11.9666 17.009 11.8794 16.7895 11.8794H12.6911ZM7.26812 18.9169H3.12841C2.57506 18.9169 2.04437 18.6971 1.65309 18.3058C1.26181 17.9145 1.04199 17.3838 1.04199 16.8305V12.6908C1.04199 12.1374 1.26181 11.6067 1.65309 11.2154C2.04437 10.8242 2.57506 10.6043 3.12841 10.6043H7.26812C7.82147 10.6043 8.35216 10.8242 8.74343 11.2154C9.13471 11.6067 9.35453 12.1374 9.35453 12.6908V16.8305C9.35496 17.3698 9.14654 17.8883 8.77299 18.2773C8.39944 18.6662 7.88979 18.8955 7.35091 18.9169H7.26812ZM3.12841 11.8794C2.90882 11.8794 2.69823 11.9666 2.54296 12.1219C2.38769 12.2771 2.30046 12.4877 2.30046 12.7073V16.847C2.30046 17.0666 2.38769 17.2772 2.54296 17.4325C2.69823 17.5877 2.90882 17.675 3.12841 17.675H7.26812C7.4877 17.675 7.69829 17.5877 7.85356 17.4325C8.00883 17.2772 8.09606 17.0666 8.09606 16.847V12.7073C8.09606 12.4877 8.00883 12.2771 7.85356 12.1219C7.69829 11.9666 7.4877 11.8794 7.26812 11.8794H3.12841Z" fill="white"/>
<path d="M16.7894 18.9172H12.7739C12.2206 18.9172 11.6899 18.6974 11.2986 18.3061C10.9073 17.9149 10.6875 17.3842 10.6875 16.8308V12.6911C10.6875 12.1378 10.9073 11.6071 11.2986 11.2158C11.6899 10.8245 12.2206 10.6047 12.7739 10.6047H16.8722C17.4256 10.6047 17.9563 10.8245 18.3475 11.2158C18.7388 11.6071 18.9586 12.1378 18.9586 12.6911V16.8308C18.9586 17.3842 18.7388 17.9149 18.3475 18.3061C17.9563 18.6974 17.4256 18.9172 16.8722 18.9172H16.7894ZM12.6911 11.8797C12.4715 11.8797 12.2609 11.967 12.1057 12.1222C11.9504 12.2775 11.8632 12.4881 11.8632 12.7077V16.8474C11.8632 17.067 11.9504 17.2776 12.1057 17.4328C12.2609 17.5881 12.4715 17.6753 12.6911 17.6753H16.7894C17.009 17.6753 17.2196 17.5881 17.3749 17.4328C17.5301 17.2776 17.6174 17.067 17.6174 16.8474V12.7077C17.6174 12.4881 17.5301 12.2775 17.3749 12.1222C17.2196 11.967 17.009 11.8797 16.7894 11.8797H12.6911Z" fill="#D8222A"/>
</svg>
