<svg width="16" height="16" viewBox="0 0 16 16" fill="none" xmlns="http://www.w3.org/2000/svg">
<g clip-path="url(#clip0_261_12026)">
<path opacity="0.1" d="M13.0195 14.9334H10.8058C10.2877 14.9334 9.79091 14.7276 9.42459 14.3613C9.05828 13.995 8.85248 13.4982 8.85248 12.9801V10.0697C8.85193 9.94506 8.82386 9.82208 8.77028 9.70955C8.7167 9.59701 8.63892 9.4977 8.54251 9.41871C8.4461 9.33971 8.33344 9.28299 8.21256 9.25258C8.09169 9.22217 7.96559 9.21883 7.84328 9.2428C7.64016 9.28698 7.45906 9.40121 7.33169 9.56548C7.20431 9.72975 7.1388 9.9336 7.1466 10.1413V12.9541C7.1466 13.4721 6.94081 13.969 6.57449 14.3353C6.20818 14.7016 5.71135 14.9074 5.1933 14.9074H2.95352C2.43547 14.9074 1.93864 14.7016 1.57232 14.3353C1.20601 13.969 1.00022 13.4721 1.00022 12.9541V7.50437C0.994774 7.02507 1.09255 6.55022 1.28691 6.11207C1.48127 5.67391 1.76766 5.28273 2.12662 4.96507L5.87696 1.70957C6.46571 1.20866 7.21351 0.933594 7.98652 0.933594C8.75953 0.933594 9.50733 1.20866 10.0961 1.70957L13.8399 4.96507C14.2033 5.27954 14.4949 5.66845 14.6948 6.10543C14.8948 6.54242 14.9985 7.01729 14.9989 7.49785V12.9541C15.0024 13.215 14.9536 13.4739 14.8553 13.7157C14.7571 13.9574 14.6114 14.177 14.4269 14.3615C14.2424 14.546 14.0228 14.6917 13.7811 14.7899C13.5394 14.8881 13.2804 14.9369 13.0195 14.9334Z" fill="#78829D"/>
<path d="M13.0825 15.0864H10.8424C10.3182 15.0864 9.81548 14.8782 9.44481 14.5075C9.07413 14.1368 8.86589 13.6341 8.86589 13.1099V10.1648C8.86533 10.0387 8.83693 9.91423 8.78271 9.80035C8.72849 9.68648 8.64978 9.58598 8.55223 9.50605C8.45467 9.42612 8.34066 9.36871 8.21835 9.33794C8.09603 9.30717 7.96844 9.30379 7.84467 9.32805C7.63913 9.37275 7.45587 9.48834 7.32698 9.65457C7.1981 9.8208 7.1318 10.0271 7.1397 10.2373V13.0835C7.1397 13.6077 6.93145 14.1105 6.56078 14.4811C6.1901 14.8518 5.68736 15.0601 5.16314 15.0601H2.89669C2.37248 15.0601 1.86973 14.8518 1.49906 14.4811C1.12838 14.1105 0.92014 13.6077 0.92014 13.0835V7.56892C0.914634 7.08392 1.01358 6.60341 1.21025 6.16004C1.40693 5.71667 1.69672 5.32083 2.05995 4.9994L5.85494 1.70514C6.4507 1.19826 7.2074 0.919922 7.98961 0.919922C8.77183 0.919922 9.52852 1.19826 10.1243 1.70514L13.9127 4.9994C14.2804 5.31761 14.5754 5.71114 14.7778 6.15333C14.9801 6.59552 15.085 7.07604 15.0854 7.56233V13.0835C15.089 13.3475 15.0396 13.6096 14.9402 13.8542C14.8408 14.0988 14.6934 14.321 14.5067 14.5077C14.32 14.6944 14.0978 14.8418 13.8532 14.9412C13.6086 15.0406 13.3465 15.09 13.0825 15.0864ZM7.98961 8.33318C8.47599 8.33318 8.94255 8.52594 9.28709 8.86925C9.63163 9.21255 9.82607 9.67841 9.82781 10.1648V13.0835C9.82781 13.3526 9.93471 13.6107 10.125 13.801C10.3153 13.9912 10.5733 14.0981 10.8424 14.0981H13.0825C13.2163 14.099 13.349 14.0734 13.4728 14.0228C13.5967 13.9722 13.7093 13.8976 13.8043 13.8033C13.8992 13.709 13.9745 13.5968 14.0259 13.4733C14.0773 13.3498 14.1038 13.2173 14.1038 13.0835V7.56233C14.1018 7.21648 14.0255 6.87509 13.88 6.56134C13.7345 6.24758 13.5232 5.96879 13.2604 5.7439L9.47203 2.44964C9.05691 2.09512 8.52893 1.90034 7.98303 1.90034C7.43713 1.90034 6.90914 2.09512 6.49402 2.44964L2.7188 5.75049C2.45556 5.97457 2.24433 6.25334 2.09982 6.56739C1.95531 6.88144 1.881 7.22322 1.88206 7.56892V13.0835C1.88206 13.2173 1.90852 13.3498 1.95992 13.4733C2.01132 13.5968 2.08665 13.709 2.18157 13.8033C2.27648 13.8976 2.38911 13.9722 2.51298 14.0228C2.63684 14.0734 2.76949 14.099 2.90328 14.0981H5.14338C5.41133 14.0964 5.66772 13.9887 5.85657 13.7986C6.04543 13.6085 6.15142 13.3515 6.15142 13.0835V10.2373C6.14634 9.79318 6.29718 9.36138 6.57769 9.01706C6.8582 8.67275 7.2506 8.43774 7.68654 8.35295C7.78701 8.33959 7.88826 8.33299 7.98961 8.33318Z" fill="#78829D"/>
</g>
<defs>
<clipPath id="clip0_261_12026">
<rect width="16" height="16" fill="white"/>
</clipPath>
</defs>
</svg>
