<svg width="72" height="72" viewBox="0 0 72 72" fill="none" xmlns="http://www.w3.org/2000/svg">
<path d="M35.999 7.2967C41.6758 7.2967 47.2251 8.98006 51.9452 12.1339C56.6653 15.2878 60.3441 19.7705 62.5165 25.0151C64.6889 30.2598 65.2573 36.0309 64.1498 41.5986C63.0424 47.1663 60.3087 52.2805 56.2946 56.2946C52.2806 60.3087 47.1663 63.0423 41.5986 64.1498C36.0309 65.2573 30.2598 64.6889 25.0151 62.5165C19.7705 60.3441 15.2878 56.6652 12.1339 51.9452C8.98007 47.2251 7.29671 41.6758 7.29671 35.999C7.29671 28.3867 10.3207 21.0861 15.7034 15.7034C21.0862 10.3207 28.3867 7.2967 35.999 7.2967ZM35.999 2.99902C29.4723 2.99902 23.092 4.93444 17.6652 8.56053C12.2384 12.1866 8.00871 17.3405 5.51101 23.3705C3.01332 29.4004 2.35981 36.0356 3.63312 42.437C4.90644 48.8384 8.04938 54.7184 12.6645 59.3335C17.2796 63.9487 23.1597 67.0916 29.5611 68.3649C35.9624 69.6382 42.5976 68.9847 48.6276 66.487C54.6575 63.9894 59.8114 59.7597 63.4375 54.3328C67.0636 48.906 68.999 42.5258 68.999 35.999C68.9909 27.2494 65.5115 18.8604 59.3246 12.6735C53.1376 6.48654 44.7487 3.00715 35.999 2.99902Z" fill="#26B478"/>
<path d="M33.1159 40.5422L23.6917 31.0874C23.1412 30.5715 22.4199 30.2764 21.6657 30.2585C21.0991 30.2641 20.5468 30.4364 20.0775 30.7538C19.6082 31.0713 19.2427 31.5198 19.0266 32.0436C18.8106 32.5674 18.7535 33.1432 18.8625 33.6992C18.9715 34.2551 19.2418 34.7667 19.6396 35.1702L31.0899 46.6511C31.652 47.1516 32.3785 47.4282 33.1313 47.4282C33.884 47.4282 34.6105 47.1516 35.1727 46.6511L52.3633 29.4297C52.7612 29.0263 53.0315 28.5147 53.1405 27.9587C53.2495 27.4027 53.1924 26.8269 52.9763 26.3031C52.7603 25.7794 52.3948 25.3308 51.9255 25.0134C51.4562 24.6959 50.9039 24.5237 50.3373 24.5181C49.583 24.536 48.8618 24.831 48.3113 25.3469L33.1466 40.6957" fill="#26B478"/>
</svg>
