<svg width="20" height="20" viewBox="0 0 20 20" fill="none" xmlns="http://www.w3.org/2000/svg">
<path opacity="0.1" d="M9.98301 19.0836C9.32537 19.0854 8.679 18.9135 8.10975 18.5856L3.44779 15.9098C2.88137 15.5812 2.41121 15.1107 2.08406 14.545C1.7569 13.9793 1.58416 13.3382 1.58301 12.6854V7.31702C1.58416 6.66423 1.7569 6.02311 2.08406 5.45743C2.41121 4.89174 2.88137 4.4212 3.44779 4.0926L8.10975 1.41683C8.67929 1.08938 9.32536 0.916992 9.98301 0.916992C10.6407 0.916992 11.2867 1.08938 11.8563 1.41683L16.5182 4.0926C17.0846 4.4212 17.5548 4.89174 17.882 5.45743C18.2091 6.02311 18.3819 6.66423 18.383 7.31702V12.6854C18.3819 13.3382 18.2091 13.9793 17.882 14.545C17.5548 15.1107 17.0846 15.5812 16.5182 15.9098L11.8563 18.5856C11.2875 18.9147 10.6408 19.0866 9.98301 19.0836Z" fill="#F8285A"/>
<path d="M10 0.833008C10.6609 0.833008 11.3104 1.00743 11.8828 1.33789L16.5674 4.03809C17.1366 4.36971 17.6097 4.84416 17.9385 5.41504C18.2672 5.98589 18.4402 6.63325 18.4414 7.29199V12.709C18.4402 13.3677 18.2672 14.0151 17.9385 14.5859C17.6097 15.1568 17.1366 15.6322 16.5674 15.9639L11.8828 18.6641C11.3112 18.9961 10.6611 19.169 10 19.166C9.3391 19.1678 8.68926 18.995 8.11719 18.6641L3.43262 15.9639C2.86339 15.6322 2.3903 15.1568 2.06152 14.5859C1.73284 14.0151 1.55975 13.3677 1.55859 12.709V7.29199C1.55975 6.63326 1.73279 5.98589 2.06152 5.41504C2.3903 4.84416 2.86339 4.36971 3.43262 4.03809L8.11719 1.33789C8.68955 1.00744 9.33909 0.833011 10 0.833008ZM10 2.12988C9.56464 2.13008 9.13607 2.24105 8.75586 2.45312L4.03711 5.14551C3.6681 5.36849 3.36287 5.68331 3.15234 6.05957C2.94183 6.43586 2.83288 6.86083 2.83594 7.29199V12.709C2.83288 13.1401 2.94188 13.5651 3.15234 13.9414C3.36291 14.3177 3.668 14.6335 4.03711 14.8564L8.72266 17.5645C9.10287 17.7762 9.5306 17.8877 9.96582 17.8877C10.4011 17.8877 10.8297 17.7763 11.21 17.5645L15.9629 14.8564C16.3383 14.6377 16.6495 14.3239 16.8662 13.9473C17.0829 13.5706 17.1978 13.1435 17.1982 12.709V7.29199C17.1978 6.85747 17.0829 6.43033 16.8662 6.05371C16.6495 5.67725 16.3382 5.36421 15.9629 5.14551L11.2773 2.43652C10.8871 2.21883 10.4468 2.10662 10 2.1123V2.12988ZM10 12.3516C10.5879 12.3516 11.0643 12.8282 11.0645 13.416C11.0645 14.004 10.588 14.4814 10 14.4814C9.41193 14.4814 8.93555 14.0041 8.93555 13.416C8.93573 12.8281 9.41204 12.3516 10 12.3516ZM10 5.51953C10.2259 5.51953 10.4428 5.6089 10.6025 5.76855C10.7622 5.92824 10.8515 6.14527 10.8516 6.37109V10.3408C10.8516 10.5667 10.7623 10.7836 10.6025 10.9434C10.4428 11.1031 10.2259 11.1924 10 11.1924C9.77409 11.1924 9.5572 11.1031 9.39746 10.9434C9.23775 10.7836 9.14844 10.5667 9.14844 10.3408V6.37109C9.14851 6.14527 9.23777 5.92824 9.39746 5.76855C9.55719 5.60889 9.77415 5.51954 10 5.51953Z" fill="#F8285A"/>
</svg>
