<svg width="214" height="66" viewBox="0 0 214 66" fill="none" xmlns="http://www.w3.org/2000/svg">
<g clip-path="url(#clip0_74_2941)">
<path d="M16.7525 12.903C13.719 13.5993 10.8397 14.8802 8.3747 16.7151C2.65315 20.9644 -0.619348 28.0956 0.0978406 34.988C0.342216 37.3566 1.07003 39.6795 2.18034 41.8092C3.29065 43.939 4.80471 45.906 6.6216 47.5528C8.43845 49.1997 10.6432 50.5568 13.0019 51.4819C15.6369 52.5137 18.3675 53.3117 21.1566 53.8556L21.1353 45.784C15.9663 45.2198 11.3125 41.5348 9.76655 36.7822C8.22066 32.0298 9.86217 26.4691 13.7828 23.1958C17.7035 19.9224 23.3931 19.8513 28.3975 21.2287C28.9234 21.371 29.9965 21.7217 29.9965 21.7217C29.9965 21.7217 30.0444 20.8373 30.055 20.6035C30.1187 19.2413 30.1612 16.9184 30.1293 15.6274C30.1134 15.0022 30.1134 14.3973 30.039 13.7976L30.0284 13.7823C30.0284 13.7823 29.2793 13.4316 28.9394 13.3249C25.0134 12.1304 20.7634 11.983 16.7578 12.903H16.7525Z" fill="black"/>
<path d="M38.1032 53.5447L46.125 53.8498V41.6C46.125 34.2299 46.3375 29.4011 46.6031 29.5028C46.8687 29.5537 51.1187 35.0431 56.0593 41.6L64.9844 53.5447L71.6252 53.8498V12.1194H63.1252L63.0188 24.42L62.8591 36.7713L53.6156 24.42L44.3719 12.1194H37.8906L38.1032 53.5447Z" fill="black"/>
<path d="M79.0635 19.7437H98.7198V12.1194H79.0635V19.7437Z" fill="black"/>
<path d="M106.157 32.9585C106.157 35.6981 106.157 38.4429 106.157 41.1826C106.157 44.6288 106.157 48.0749 106.157 51.5211C106.157 52.0243 105.918 53.5847 106.316 53.844C106.715 54.1032 108.484 53.7627 109.005 53.7423L114.392 53.5441C114.497 48.7154 114.604 43.8866 114.71 39.0579H121.027C123.592 43.973 126.159 48.8831 128.73 53.7931C131.678 53.8846 134.626 53.8135 137.57 53.5746C135.801 50.108 134.031 46.6364 132.263 43.1699C131.482 41.6349 130.695 40.0948 130.127 38.4734C130.063 38.2955 130.005 38.1074 130.037 37.9193C130.095 37.594 130.419 37.3806 130.712 37.2027C135.296 34.3512 138.303 29.0345 137.554 23.8551C137.171 21.2069 135.87 18.7214 134.037 16.6984C132.502 15.0058 130.557 13.6029 128.321 12.9371C126.467 12.383 124.49 12.3475 122.546 12.317C117.085 12.2306 111.618 12.1441 106.157 12.0577C106.157 19.0212 106.157 25.9899 106.157 32.9534V32.9585ZM126.823 21.0138C130.117 23.7076 130.117 27.9773 126.823 30.6712C125.335 31.8402 124.804 31.9419 119.916 31.9419H114.657V19.743H119.916C124.804 19.743 125.335 19.8447 126.823 21.0138Z" fill="black"/>
<path d="M142.813 19.7437H151.845C156.838 19.7437 160.876 19.8454 160.876 19.9471C160.876 20.0995 156.838 26.2498 151.845 33.7216L142.813 47.2928V53.7989H172.032V46.1746H163.001C158.06 46.1746 153.97 46.0221 153.97 45.768C153.97 45.5647 158.06 39.3636 163.001 31.9426L172.032 18.473V12.1194H142.813V19.7437Z" fill="black"/>
<path d="M176.76 12.9835C177.025 13.4918 180.372 19.1338 184.197 25.5382L191.156 37.1271V53.8498L199.391 53.5447L199.603 36.6189L206.775 24.5725C210.76 17.9647 214 12.4244 214 12.3227C214 12.2211 211.928 12.1194 209.325 12.1194H204.703L200.188 20.252C197.691 24.7249 195.513 28.3846 195.3 28.3846C195.088 28.3846 192.857 24.7249 190.359 20.252L185.791 12.1194H181.01C176.653 12.1194 176.281 12.1703 176.76 12.9835Z" fill="black"/>
<path d="M79.0635 36.5167H96.0635V28.8924H79.0635V36.5167Z" fill="black"/>
<path d="M30.1829 51.9685C30.2201 48.8679 30.1935 45.7674 30.1139 42.6668C29.4445 43.1344 28.8123 43.5563 28.1217 43.9426C26.6714 44.761 25.3804 45.4065 23.8186 45.6607C23.4467 45.7217 22.2885 45.8335 22.2885 45.8335C22.2885 45.8335 22.2567 46.667 22.2461 47.1448C22.2354 47.77 22.2301 48.3952 22.2195 49.0204C22.2036 50.2708 22.1982 51.5161 22.1982 52.7665C22.1982 53.0003 22.1982 53.8644 22.1982 53.8644C22.1982 53.8644 24.9342 53.7678 26.4376 53.412C27.941 53.0562 29.1895 52.5937 30.1776 51.9787L30.1829 51.9685Z" fill="black"/>
<path d="M79.0635 53.7989H98.7198V46.1746H79.0635V53.7989Z" fill="black"/>
<path d="M21.8476 38.042V28.5675C22.2301 28.5421 24.3445 28.4354 26.1242 29.9552C28.0685 31.6122 28.0632 33.8791 28.0579 34.2146C28.0685 34.5552 28.1004 36.4714 26.5385 38.0115C25.1679 39.3636 23.4785 39.5313 23.0535 39.5618C23.0429 40.8274 23.0323 42.0931 23.0217 43.3587C23.9726 43.2367 26.3738 42.8046 28.4723 40.9138C29.726 39.7854 30.4007 38.5655 30.7513 37.7777C31.0541 36.8984 31.4048 35.5158 31.3038 33.8181C31.2348 32.705 30.9957 31.7749 30.7513 31.0785C30.4857 30.438 29.6782 28.7302 27.7126 27.4798C25.9648 26.3666 24.2382 26.2142 23.5051 26.1938C22.9685 26.1583 20.6682 26.0668 18.6761 27.6476C17.5126 28.5726 16.7582 29.8687 16.466 31.2818C16.1738 32.6948 16.4554 34.4942 17.3745 35.6531C18.5114 37.0813 19.9723 37.9658 21.8529 38.0471L21.8476 38.042Z" fill="#D22027"/>
<path d="M23.0205 38.241C23.0205 38.241 22.8877 29.6611 22.8877 29.656C22.8877 29.6408 23.4827 29.7221 23.5146 29.7272C23.9236 29.8035 24.3221 29.9305 24.694 30.1084C25.7299 30.6065 26.4577 31.5062 26.7658 32.5685C26.8561 32.8887 26.9093 33.2191 26.9305 33.5546C26.989 34.6982 26.6649 35.9537 25.8733 36.8331C24.7312 38.1038 23.3074 38.2206 23.0258 38.2359L23.0205 38.241Z" fill="#D22027"/>
</g>
<defs>
<clipPath id="clip0_74_2941">
<rect width="214" height="65" fill="white" transform="translate(0 0.5)"/>
</clipPath>
</defs>
</svg>
