<svg width="40" height="40" viewBox="0 0 40 40" fill="none" xmlns="http://www.w3.org/2000/svg">
<path d="M19.3832 34.5334H11.2165C8.84709 34.5246 6.57746 33.5783 4.90356 31.9013C3.22966 30.2243 2.28759 27.9529 2.2832 25.5834V11.1168C2.28761 8.74885 3.23021 6.47918 4.90458 4.8048C6.57895 3.13043 8.84862 2.18783 11.2165 2.18343H25.6999C28.0691 2.18343 30.3414 3.12461 32.0167 4.79994C33.692 6.47526 34.6332 8.74749 34.6332 11.1168V19.9001C34.6332 20.2316 34.5015 20.5496 34.2671 20.784C34.0327 21.0184 33.7147 21.1501 33.3832 21.1501C33.0517 21.1501 32.7337 21.0184 32.4993 20.784C32.2649 20.5496 32.1332 20.2316 32.1332 19.9001V11.1168C32.1332 9.41053 31.4554 7.77419 30.2489 6.56771C29.0424 5.36122 27.4061 4.68343 25.6999 4.68343H11.2165C9.52189 4.70099 7.90262 5.38653 6.71052 6.59111C5.51842 7.7957 4.84978 9.42202 4.84987 11.1168V25.5834C4.84986 27.2912 5.52713 28.9292 6.73314 30.1384C7.93914 31.3475 9.57545 32.029 11.2832 32.0334H19.4499C19.7814 32.0334 20.0993 32.1651 20.3338 32.3995C20.5682 32.634 20.6999 32.9519 20.6999 33.2834C20.6999 33.6149 20.5682 33.9329 20.3338 34.1673C20.0993 34.4017 19.7814 34.5334 19.4499 34.5334H19.3832ZM31.0499 35.3501L31.9999 32.6001C32.0576 32.4482 32.1468 32.3102 32.2617 32.1953C32.3767 32.0804 32.5146 31.9911 32.6665 31.9334L35.2832 31.0001C36.0064 30.7415 36.6301 30.2624 37.0664 29.6303C37.5026 28.9982 37.7294 28.2451 37.7147 27.4772C37.6999 26.7093 37.4445 25.9654 36.9843 25.3505C36.5241 24.7356 35.8824 24.2807 35.1499 24.0501L25.9665 21.1501C25.3109 20.9456 24.612 20.9234 23.9448 21.0859C23.2775 21.2484 22.6671 21.5894 22.1789 22.0725C21.6908 22.5555 21.3433 23.1623 21.1737 23.8278C21.0042 24.4933 21.019 25.1924 21.2165 25.8501L24.0832 35.2168C24.2988 35.9623 24.7495 36.6182 25.3682 37.0868C25.9869 37.5553 26.7405 37.8114 27.5165 37.8168H27.5999C28.3761 37.8417 29.1396 37.615 29.7764 37.1705C30.4132 36.7259 30.8891 36.0874 31.1332 35.3501H31.0499ZM25.2165 23.5334L34.3999 26.4334C34.6333 26.5101 34.8365 26.6586 34.9806 26.8576C35.1247 27.0566 35.2022 27.2961 35.2022 27.5418C35.2022 27.7875 35.1247 28.0269 34.9806 28.2259C34.8365 28.4249 34.6333 28.5734 34.3999 28.6501L31.7832 29.5834C31.2809 29.7654 30.8256 30.0574 30.4507 30.4381C30.0759 30.8187 29.7908 31.2784 29.6165 31.7834L28.6665 34.5334C28.5898 34.7668 28.4414 34.9701 28.2423 35.1141C28.0433 35.2582 27.8039 35.3358 27.5582 35.3358C27.3125 35.3358 27.0731 35.2582 26.8741 35.1141C26.675 34.9701 26.5266 34.7668 26.4499 34.5334L23.5832 25.1501C23.5236 24.9599 23.5092 24.7585 23.541 24.5617C23.5728 24.365 23.65 24.1784 23.7664 24.0167C23.8829 23.8549 24.0354 23.7225 24.2118 23.63C24.3883 23.5374 24.584 23.4873 24.7832 23.4834C24.957 23.473 25.1313 23.4899 25.2999 23.5334H25.2165Z" fill="#D3D2D2"/>
<path d="M31.0499 35.3501L31.9999 32.6001C32.0576 32.4482 32.1468 32.3102 32.2618 32.1953C32.3767 32.0804 32.5146 31.9911 32.6665 31.9334L35.2832 31.0001C36.0064 30.7415 36.6301 30.2624 37.0664 29.6303C37.5027 28.9982 37.7294 28.2451 37.7147 27.4772C37.7 26.7093 37.4445 25.9654 36.9843 25.3505C36.5241 24.7356 35.8825 24.2807 35.1499 24.0501L25.9665 21.1501C25.3109 20.9456 24.6121 20.9234 23.9448 21.0859C23.2776 21.2484 22.6671 21.5894 22.1789 22.0725C21.6908 22.5555 21.3433 23.1623 21.1737 23.8278C21.0042 24.4933 21.019 25.1924 21.2165 25.8501L24.0832 35.2168C24.2988 35.9623 24.7495 36.6182 25.3682 37.0868C25.9869 37.5553 26.7405 37.8114 27.5165 37.8168H27.5999C28.3761 37.8417 29.1396 37.615 29.7764 37.1705C30.4132 36.7259 30.8891 36.0874 31.1332 35.3501H31.0499ZM25.2165 23.5334L34.3999 26.4334C34.6333 26.5101 34.8365 26.6586 34.9806 26.8576C35.1247 27.0566 35.2023 27.2961 35.2023 27.5418C35.2023 27.7875 35.1247 28.0269 34.9806 28.2259C34.8365 28.4249 34.6333 28.5734 34.3999 28.6501L31.7832 29.5834C31.2809 29.7654 30.8256 30.0574 30.4508 30.4381C30.0759 30.8187 29.7908 31.2784 29.6165 31.7834L28.6665 34.5334C28.5898 34.7668 28.4414 34.9701 28.2424 35.1141C28.0433 35.2582 27.8039 35.3358 27.5582 35.3358C27.3125 35.3358 27.0731 35.2582 26.8741 35.1141C26.6751 34.9701 26.5266 34.7668 26.4499 34.5334L23.5832 25.1501C23.5236 24.9599 23.5092 24.7585 23.541 24.5617C23.5728 24.365 23.65 24.1784 23.7664 24.0167C23.8829 23.8549 24.0354 23.7225 24.2119 23.63C24.3883 23.5374 24.584 23.4873 24.7832 23.4834C24.957 23.473 25.1313 23.4899 25.2999 23.5334H25.2165Z" fill="#D3D2D2"/>
</svg>
