<svg width="20" height="20" viewBox="0 0 20 20" fill="none" xmlns="http://www.w3.org/2000/svg">
<path d="M10 19.1661C9.64791 19.1615 9.30041 19.0877 8.97833 18.9491C8.65625 18.8106 8.36622 18.6101 8.12564 18.3598L6.63487 16.7896C6.51566 16.6646 6.37138 16.5646 6.21093 16.496C6.05049 16.4274 5.87729 16.3916 5.70205 16.3907H4.69949C3.85164 16.3885 3.03917 16.0596 2.43965 15.4759C1.84013 14.8922 1.5023 14.1012 1.5 13.2758V3.93946C1.5046 3.11549 1.84344 2.32666 2.44271 1.74481C3.04199 1.16297 3.85314 0.835235 4.69949 0.833008H15.3005C16.1484 0.835248 16.9608 1.16415 17.5604 1.74783C18.1599 2.3315 18.4977 3.1225 18.5 3.94794V13.2843C18.4977 14.1097 18.1599 14.9007 17.5604 15.4844C16.9608 16.0681 16.1484 16.397 15.3005 16.3992H14.359C14.0274 16.4145 13.7149 16.5545 13.4872 16.7896L11.9092 18.3938C11.6616 18.6421 11.3646 18.8386 11.0363 18.9714C10.7081 19.1042 10.3554 19.1705 10 19.1661ZM4.69949 2.10614C4.19775 2.10614 3.71657 2.30019 3.36179 2.64559C3.00701 2.991 2.80769 3.45947 2.80769 3.94794V13.2843C2.81683 13.7668 3.02017 14.2266 3.37397 14.5647C3.72776 14.9028 4.20374 15.0922 4.69949 15.0921H5.70205C6.06028 15.0999 6.41306 15.1792 6.73848 15.3252C7.06391 15.4712 7.35505 15.6808 7.59385 15.9409L9.0759 17.5026C9.19422 17.6258 9.33731 17.7241 9.49628 17.7913C9.65525 17.8584 9.8267 17.8931 10 17.893C10.3502 17.8774 10.6836 17.7422 10.9415 17.5111L12.5195 15.9409C12.7523 15.6869 13.035 15.4809 13.3509 15.3351C13.6669 15.1893 14.0097 15.1067 14.359 15.0921H15.2308C15.7325 15.0921 16.2137 14.8981 16.5685 14.5527C16.9233 14.2073 17.1226 13.7388 17.1226 13.2503V3.91399C17.114 3.44295 16.9203 2.99303 16.5814 2.65675C16.2425 2.32048 15.7841 2.12344 15.3005 2.10614H4.69949Z" fill="#181D4C"/>
<path d="M7.80397 11.4257H6.93218V7.05461H7.80397V11.4087V11.4257ZM12.7732 11.7567C12.7545 11.8141 12.7172 11.8641 12.6669 11.8993C12.6167 11.9345 12.5561 11.9529 12.4942 11.9519H10.4194C10.2746 11.9554 10.132 11.917 10.0096 11.8416L9.13782 11.1711V7.77605L10.6809 5.50138C10.6956 5.47337 10.7159 5.44849 10.7406 5.42818C10.7653 5.40787 10.7939 5.39253 10.8247 5.38306C10.8555 5.37358 10.8879 5.37016 10.9201 5.37299C10.9523 5.37581 10.9836 5.38484 11.0122 5.39953C11.0739 5.41912 11.126 5.46039 11.1582 5.5153C11.1905 5.57022 11.2006 5.63484 11.1865 5.69659L10.9424 6.88485C10.9131 7.04635 10.9205 7.21214 10.9642 7.37053C11.0079 7.52893 11.0868 7.67605 11.1953 7.80151C11.3007 7.92718 11.4338 8.02824 11.5847 8.09727C11.7355 8.1663 11.9004 8.20155 12.067 8.20043H13.7583L13.8368 8.30228L12.7732 11.7567Z" fill="#D8222A"/>
</svg>
