<svg width="20" height="20" viewBox="0 0 20 20" fill="none" xmlns="http://www.w3.org/2000/svg">
<path opacity="0.1" d="M16.3418 1.11621C17.0159 1.11621 17.663 1.3837 18.1396 1.86035C18.6163 2.337 18.8838 2.98412 18.8838 3.6582C18.8837 4.16078 18.7343 4.65243 18.455 5.07031C18.1758 5.4881 17.7787 5.81355 17.3144 6.00586C16.8502 6.19813 16.3395 6.24835 15.8466 6.15039C15.3536 6.05232 14.9003 5.81053 14.5449 5.45508C14.1894 5.09962 13.9476 4.64636 13.8496 4.15332C13.7516 3.66045 13.8018 3.14982 13.9941 2.68555C14.1864 2.22126 14.5119 1.82419 14.9297 1.54492C15.3476 1.26569 15.8392 1.11627 16.3418 1.11621Z" fill="#181D4C"/>
<path d="M11.5244 1.25781C11.6959 1.25792 11.8601 1.32611 11.9814 1.44727C12.1029 1.5687 12.1719 1.73354 12.1719 1.90527C12.1719 2.07703 12.1029 2.24183 11.9814 2.36328C11.8601 2.48447 11.6959 2.55262 11.5244 2.55273H6.00684C5.03711 2.56395 4.1096 2.95394 3.42383 3.63965C2.73805 4.32543 2.34813 5.25288 2.33691 6.22266V13.9941C2.34825 14.9637 2.73822 15.8905 3.42383 16.5762C4.10961 17.262 5.03706 17.6519 6.00684 17.6631H13.7773C14.7471 17.6519 15.6746 17.262 16.3604 16.5762C17.0459 15.8905 17.4359 14.9637 17.4473 13.9941V8.8125C17.4474 8.64107 17.5156 8.47678 17.6367 8.35547C17.7581 8.23406 17.923 8.16508 18.0947 8.16504C18.2665 8.16504 18.4313 8.23402 18.5527 8.35547C18.674 8.47679 18.7421 8.641 18.7422 8.8125V13.9941C18.7308 15.3072 18.2039 16.5636 17.2754 17.4922C16.3468 18.4206 15.0904 18.9477 13.7773 18.959H6.00684C4.69374 18.9477 3.43741 18.4206 2.50879 17.4922C1.58024 16.5636 1.05339 15.3072 1.04199 13.9941V6.22266C1.05327 4.90938 1.58013 3.65327 2.50879 2.72461C3.43744 1.79603 4.69362 1.26909 6.00684 1.25781H11.5244ZM13.3457 13.5615C13.5174 13.5615 13.6823 13.6297 13.8037 13.751C13.9251 13.8724 13.9931 14.0373 13.9932 14.209C13.9932 14.3807 13.9252 14.5455 13.8037 14.667C13.6823 14.7884 13.5175 14.8564 13.3457 14.8564H5.84277C5.67104 14.8564 5.50621 14.7884 5.38477 14.667C5.26332 14.5455 5.19531 14.3807 5.19531 14.209C5.19537 14.0373 5.26337 13.8724 5.38477 13.751C5.50619 13.6297 5.67114 13.5615 5.84277 13.5615H13.3457ZM9.89258 10.1074C10.064 10.1075 10.2283 10.1757 10.3496 10.2969C10.471 10.4183 10.54 10.5832 10.54 10.7549C10.54 10.9266 10.4711 11.0914 10.3496 11.2129C10.2283 11.3341 10.0641 11.4022 9.89258 11.4023H5.84277C5.67105 11.4023 5.50621 11.3343 5.38477 11.2129C5.26332 11.0914 5.19531 10.9266 5.19531 10.7549C5.19535 10.5832 5.26335 10.4183 5.38477 10.2969C5.50619 10.1755 5.67111 10.1074 5.84277 10.1074H9.89258ZM16.3682 1.04199C17.0551 1.04202 17.7144 1.31502 18.2002 1.80078C18.6858 2.28654 18.958 2.94594 18.958 3.63281C18.9579 4.14498 18.806 4.64543 18.5215 5.07129C18.2369 5.49723 17.8327 5.82934 17.3594 6.02539C16.886 6.22145 16.3648 6.2728 15.8623 6.17285C15.36 6.07285 14.8983 5.82604 14.5361 5.46387C14.174 5.10163 13.9271 4.64008 13.8271 4.1377C13.7272 3.63524 13.7786 3.11393 13.9746 2.64062C14.1707 2.16747 14.5029 1.76309 14.9287 1.47852C15.3547 1.19388 15.8558 1.04199 16.3682 1.04199ZM16.3682 2.33691C16.0247 2.33691 15.695 2.4739 15.4521 2.7168C15.2094 2.95967 15.0732 3.2894 15.0732 3.63281C15.0733 3.88869 15.1489 4.13877 15.291 4.35156C15.4333 4.56448 15.6355 4.73106 15.8721 4.8291C16.1087 4.92713 16.3699 4.95232 16.6211 4.90234C16.8722 4.85232 17.1031 4.72889 17.2842 4.54785C17.4651 4.36676 17.5887 4.13586 17.6387 3.88477C17.6886 3.63362 17.6624 3.37328 17.5645 3.13672C17.4665 2.90019 17.3007 2.69796 17.0879 2.55566C16.8749 2.41336 16.6243 2.33693 16.3682 2.33691Z" fill="#181D4C"/>
<path d="M9.8925 11.4026H5.8429C5.67115 11.4026 5.50643 11.3344 5.38499 11.2129C5.26354 11.0915 5.19531 10.9268 5.19531 10.755C5.19531 10.5833 5.26354 10.4185 5.38499 10.2971C5.50643 10.1757 5.67115 10.1074 5.8429 10.1074H9.8925C10.0643 10.1074 10.229 10.1757 10.3504 10.2971C10.4719 10.4185 10.5401 10.5833 10.5401 10.755C10.5401 10.9268 10.4719 11.0915 10.3504 11.2129C10.229 11.3344 10.0643 11.4026 9.8925 11.4026Z" fill="#D8222A"/>
<path d="M13.3463 14.8568H5.8429C5.67115 14.8568 5.50643 14.7886 5.38499 14.6671C5.26354 14.5457 5.19531 14.3809 5.19531 14.2092C5.19531 14.0374 5.26354 13.8727 5.38499 13.7513C5.50643 13.6298 5.67115 13.5616 5.8429 13.5616H13.3463C13.5181 13.5616 13.6828 13.6298 13.8042 13.7513C13.9257 13.8727 13.9939 14.0374 13.9939 14.2092C13.9939 14.3809 13.9257 14.5457 13.8042 14.6671C13.6828 14.7886 13.5181 14.8568 13.3463 14.8568Z" fill="#D8222A"/>
</svg>
