<svg width="20" height="20" viewBox="0 0 20 20" fill="none" xmlns="http://www.w3.org/2000/svg">
<path d="M13.4161 18.9587H6.58274C5.10332 18.9433 3.69011 18.343 2.65178 17.2891C1.61345 16.2352 1.03439 14.8131 1.04107 13.3337V6.66699C1.03439 5.18751 1.61345 3.76549 2.65178 2.71155C3.69011 1.65761 5.10332 1.05739 6.58274 1.04199H13.4161C14.8955 1.05739 16.3087 1.65761 17.347 2.71155C18.3854 3.76549 18.9644 5.18751 18.9577 6.66699V13.3337C18.9644 14.8131 18.3854 16.2352 17.347 17.2891C16.3087 18.343 14.8955 18.9433 13.4161 18.9587ZM6.58274 2.34199C5.44513 2.35517 4.35872 2.81691 3.55973 3.62682C2.76075 4.43673 2.3138 5.52931 2.31607 6.66699V13.3337C2.3138 14.4713 2.76075 15.5639 3.55973 16.3738C4.35872 17.1837 5.44513 17.6455 6.58274 17.6587H13.4161C14.5537 17.6455 15.6401 17.1837 16.4391 16.3738C17.2381 15.5639 17.685 14.4713 17.6827 13.3337V6.66699C17.685 5.52931 17.2381 4.43673 16.4391 3.62682C15.6401 2.81691 14.5537 2.35517 13.4161 2.34199H6.58274ZM5.95774 9.00866C6.04935 8.99538 6.13699 8.96243 6.21467 8.91209C6.29234 8.86174 6.35821 8.79519 6.40774 8.71699L7.81607 6.44199C7.90721 6.29566 7.93731 6.11942 7.89992 5.95114C7.86252 5.78285 7.76061 5.63595 7.61607 5.54199C7.54537 5.49673 7.46628 5.46618 7.38351 5.45215C7.30074 5.43813 7.216 5.44092 7.13434 5.46037C7.05267 5.47981 6.97576 5.51551 6.9082 5.56532C6.84063 5.61514 6.78379 5.67806 6.74107 5.75033L5.72441 7.41699L5.14941 6.90866C5.08727 6.85178 5.01427 6.80805 4.9348 6.78009C4.85534 6.75213 4.77104 6.74053 4.68697 6.74598C4.60291 6.75143 4.52081 6.77382 4.44562 6.8118C4.37042 6.84978 4.30368 6.90257 4.24941 6.96699C4.13975 7.09813 4.08466 7.26638 4.09552 7.43698C4.10638 7.60757 4.18235 7.76748 4.30774 7.88366L5.44941 8.89199C5.56529 8.99223 5.71286 9.04831 5.86607 9.05033L5.95774 9.00866ZM15.5994 7.71699C15.5999 7.55293 15.5383 7.39474 15.427 7.27419C15.3157 7.15363 15.163 7.07961 14.9994 7.06699H9.99941C9.8562 7.10006 9.72844 7.18068 9.63695 7.2957C9.54546 7.41073 9.49566 7.55336 9.49566 7.70033C9.49566 7.84729 9.54546 7.98993 9.63695 8.10495C9.72844 8.21997 9.8562 8.30059 9.99941 8.33366H14.9994C15.1574 8.32166 15.3056 8.25237 15.416 8.13881C15.5265 8.02525 15.5917 7.87525 15.5994 7.71699ZM5.93274 13.5503C6.02435 13.537 6.11199 13.5041 6.18967 13.4538C6.26734 13.4034 6.33321 13.3369 6.38274 13.2587L7.79107 11.0003C7.88178 10.8553 7.91165 10.6803 7.87421 10.5134C7.83677 10.3465 7.73504 10.2011 7.59107 10.1087C7.45284 10.0295 7.28961 10.0062 7.13473 10.0433C6.97985 10.0805 6.845 10.1754 6.75774 10.3087L5.74107 11.9753L5.16607 11.467C5.1034 11.4106 5.02996 11.3675 4.95018 11.3402C4.8704 11.3129 4.78593 11.3021 4.70185 11.3083C4.61777 11.3145 4.53582 11.3377 4.46092 11.3764C4.38603 11.4152 4.31975 11.4686 4.26607 11.5337C4.15642 11.6648 4.10133 11.833 4.11219 12.0036C4.12304 12.1742 4.19901 12.3341 4.32441 12.4503L5.46607 13.4503C5.57993 13.5539 5.72882 13.6105 5.88274 13.6087L5.93274 13.5503ZM15.6161 12.2587C15.6039 12.1015 15.5343 11.9544 15.4206 11.8452C15.3068 11.7361 15.1569 11.6727 14.9994 11.667H9.99941C9.82701 11.667 9.66168 11.7355 9.53979 11.8574C9.41789 11.9793 9.34941 12.1446 9.34941 12.317C9.34941 12.4894 9.41789 12.6547 9.53979 12.7766C9.66168 12.8985 9.82701 12.967 9.99941 12.967H14.9994C15.0852 12.9638 15.1694 12.9435 15.2472 12.9072C15.325 12.8709 15.3947 12.8194 15.4522 12.7557C15.5097 12.6919 15.5538 12.6173 15.5819 12.5363C15.6101 12.4552 15.6217 12.3693 15.6161 12.2837V12.2587Z" fill="#181D4C"/>
<path d="M5.95829 9.00652C6.0499 8.99324 6.13755 8.96029 6.21522 8.90995C6.2929 8.8596 6.35876 8.79305 6.40829 8.71485L7.81663 6.43985C7.90776 6.29352 7.93787 6.11728 7.90047 5.949C7.86307 5.78071 7.76116 5.63381 7.61663 5.53985C7.54593 5.49459 7.46683 5.46404 7.38406 5.45001C7.3013 5.43599 7.21655 5.43878 7.13489 5.45823C7.05323 5.47767 6.97632 5.51337 6.90875 5.56318C6.84118 5.613 6.78434 5.67592 6.74163 5.74819L5.72496 7.41485L5.14996 6.90652C5.08782 6.84964 5.01482 6.80591 4.93536 6.77795C4.85589 6.74999 4.77159 6.73839 4.68752 6.74384C4.60346 6.74929 4.52136 6.77168 4.44617 6.80966C4.37098 6.84764 4.30424 6.90043 4.24996 6.96485C4.14031 7.09599 4.08522 7.26424 4.09607 7.43484C4.10693 7.60543 4.1829 7.76534 4.30829 7.88152L5.44996 8.88985C5.56585 8.99009 5.71342 9.04617 5.86663 9.04819L5.95829 9.00652ZM15.6 7.71485C15.6004 7.55079 15.5389 7.3926 15.4276 7.27205C15.3163 7.15149 15.1635 7.07747 15 7.06485H9.99996C9.85676 7.09792 9.72899 7.17854 9.6375 7.29356C9.54602 7.40859 9.49621 7.55122 9.49621 7.69819C9.49621 7.84515 9.54602 7.98779 9.6375 8.10281C9.72899 8.21783 9.85676 8.29845 9.99996 8.33152H15C15.1579 8.31952 15.3061 8.25023 15.4166 8.13667C15.5271 8.02311 15.5923 7.87311 15.6 7.71485ZM5.93329 13.5482C6.0249 13.5349 6.11255 13.502 6.19022 13.4516C6.2679 13.4013 6.33376 13.3347 6.38329 13.2565L7.79163 10.9982C7.88233 10.8531 7.9122 10.6782 7.87476 10.5113C7.83732 10.3444 7.73559 10.1989 7.59163 10.1065C7.45339 10.0274 7.29016 10.004 7.13528 10.0412C6.9804 10.0784 6.84556 10.1733 6.75829 10.3065L5.74163 11.9732L5.16663 11.4649C5.10395 11.4085 5.03051 11.3653 4.95074 11.3381C4.87096 11.3108 4.78648 11.2999 4.7024 11.3062C4.61832 11.3124 4.53637 11.3356 4.46148 11.3743C4.38659 11.413 4.32031 11.4665 4.26663 11.5315C4.15697 11.6627 4.10188 11.8309 4.11274 12.0015C4.1236 12.1721 4.19957 12.332 4.32496 12.4482L5.46663 13.4482C5.58048 13.5518 5.72937 13.6084 5.88329 13.6065L5.93329 13.5482ZM15.6166 12.2565C15.6044 12.0994 15.5349 11.9522 15.4211 11.8431C15.3074 11.734 15.1575 11.6705 15 11.6649H9.99996C9.82757 11.6649 9.66224 11.7333 9.54034 11.8552C9.41844 11.9771 9.34996 12.1425 9.34996 12.3149C9.34996 12.4872 9.41844 12.6526 9.54034 12.7745C9.66224 12.8964 9.82757 12.9649 9.99996 12.9649H15C15.0857 12.9617 15.17 12.9414 15.2478 12.9051C15.3255 12.8688 15.3952 12.8172 15.4527 12.7535C15.5102 12.6898 15.5543 12.6152 15.5825 12.5341C15.6107 12.4531 15.6223 12.3672 15.6166 12.2815V12.2565Z" fill="#D8222A"/>
</svg>
