<svg width="20" height="20" viewBox="0 0 20 20" fill="none" xmlns="http://www.w3.org/2000/svg">
<path d="M18.3223 3.02902C18.0917 2.77114 17.8102 2.56381 17.4956 2.42012C17.1809 2.27643 16.8398 2.19949 16.4939 2.19414H6.50868C6.26609 2.20953 6.02704 2.26015 5.79903 2.34442L5.22296 1.39264C5.16462 1.28646 5.07883 1.19789 4.97456 1.13621C4.87028 1.07452 4.75134 1.04198 4.63019 1.04199H1.69139C1.51751 1.06094 1.35676 1.14342 1.23997 1.27362C1.12318 1.40382 1.05859 1.57257 1.05859 1.74747C1.05859 1.92238 1.12318 2.09112 1.23997 2.22132C1.35676 2.35152 1.51751 2.43401 1.69139 2.45295H4.23779L4.61349 3.12086C4.26778 3.53379 4.06044 4.04484 4.02072 4.58191L3.48639 12.0041C3.45927 12.3522 3.50218 12.7022 3.6126 13.0334C3.72301 13.3647 3.89869 13.6704 4.12926 13.9326C4.36079 14.1916 4.64364 14.3995 4.95985 14.5432C5.27605 14.6869 5.61869 14.7633 5.96601 14.7675H15.9012C16.5429 14.7684 17.1606 14.523 17.6266 14.0818C18.0927 13.6406 18.3716 13.0373 18.4058 12.3965L18.9401 4.97431C18.9725 4.62522 18.9344 4.2732 18.8283 3.93907C18.7222 3.60494 18.5501 3.29549 18.3223 3.02902ZM16.4939 3.63014C16.6505 3.62771 16.8059 3.65844 16.9498 3.72032C17.0937 3.78219 17.2228 3.8738 17.3288 3.98914C17.4305 4.10194 17.5087 4.23385 17.5589 4.3772C17.6091 4.52054 17.6302 4.67244 17.621 4.82403L17.5041 6.4938H5.2647L5.39828 4.6821C5.41524 4.39855 5.53942 4.13207 5.74563 3.93671C5.95183 3.74136 6.22463 3.63175 6.50868 3.63014H16.4939ZM15.9179 13.3566H5.98271C5.82555 13.3574 5.66997 13.3251 5.52612 13.2618C5.38227 13.1986 5.25337 13.1057 5.14782 12.9892C4.94401 12.7604 4.83897 12.4603 4.85561 12.1543L5.15617 7.9799H17.3455L17.0366 12.3464C17.006 12.6224 16.8752 12.8777 16.669 13.0639C16.4629 13.25 16.1956 13.3542 15.9179 13.3566ZM8.9883 17.531C8.98336 17.8172 8.89399 18.0956 8.73139 18.3311C8.56879 18.5667 8.34023 18.749 8.07438 18.8551C7.80854 18.9613 7.51727 18.9865 7.23714 18.9276C6.95702 18.8688 6.70052 18.7285 6.49985 18.5244C6.29919 18.3202 6.1633 18.0614 6.10924 17.7803C6.05519 17.4992 6.08538 17.2084 6.19603 16.9444C6.30668 16.6804 6.49286 16.455 6.73118 16.2964C6.9695 16.1379 7.24935 16.0533 7.53559 16.0533C7.72817 16.0543 7.91863 16.0935 8.09603 16.1685C8.27342 16.2434 8.43425 16.3527 8.56925 16.49C8.70426 16.6274 8.81078 16.79 8.8827 16.9687C8.95461 17.1473 8.9905 17.3384 8.9883 17.531ZM15.5004 17.531C15.4938 17.8152 15.4036 18.0911 15.2409 18.3241C15.0783 18.5572 14.8505 18.7372 14.586 18.8414C14.3216 18.9456 14.0323 18.9695 13.7544 18.91C13.4764 18.8506 13.2222 18.7104 13.0235 18.5072C12.8249 18.3039 12.6906 18.0466 12.6375 17.7673C12.5844 17.4881 12.6149 17.1994 12.7251 16.9374C12.8354 16.6755 13.0205 16.4518 13.2572 16.2945C13.4939 16.1373 13.7718 16.0533 14.0561 16.0533C14.2479 16.0554 14.4375 16.0954 14.6139 16.1708C14.7904 16.2463 14.9502 16.3557 15.0843 16.493C15.2184 16.6302 15.3242 16.7925 15.3956 16.9706C15.467 17.1487 15.5026 17.3391 15.5004 17.531Z" fill="#181D4C"/>
<path d="M8.99015 17.5305C8.98522 17.8167 8.89584 18.095 8.73324 18.3306C8.57065 18.5662 8.34208 18.7485 8.07624 18.8546C7.81039 18.9607 7.51912 18.986 7.239 18.9271C6.95887 18.8683 6.70237 18.728 6.50171 18.5238C6.30104 18.3197 6.16515 18.0609 6.1111 17.7798C6.05705 17.4987 6.08724 17.2079 6.19789 16.9439C6.30854 16.6799 6.49471 16.4545 6.73303 16.2959C6.97136 16.1374 7.25121 16.0528 7.53745 16.0527C7.73003 16.0538 7.92049 16.093 8.09788 16.1679C8.27528 16.2429 8.4361 16.3522 8.57111 16.4895C8.70611 16.6268 8.81264 16.7895 8.88455 16.9682C8.95647 17.1468 8.99235 17.3379 8.99015 17.5305ZM15.5023 17.5305C15.4957 17.8146 15.4054 18.0905 15.2428 18.3236C15.0801 18.5567 14.8523 18.7366 14.5879 18.8408C14.3235 18.9451 14.0342 18.9689 13.7562 18.9095C13.4783 18.8501 13.2241 18.7099 13.0254 18.5067C12.8267 18.3034 12.6924 18.046 12.6394 17.7668C12.5863 17.4876 12.6168 17.1989 12.727 16.9369C12.8372 16.6749 13.0223 16.4513 13.2591 16.294C13.4958 16.1367 13.7737 16.0528 14.0579 16.0527C14.2498 16.0549 14.4393 16.0949 14.6158 16.1703C14.7922 16.2458 14.952 16.3552 15.0862 16.4924C15.2203 16.6297 15.3261 16.792 15.3975 16.9701C15.4689 17.1482 15.5045 17.3386 15.5023 17.5305Z" fill="#D8222A"/>
</svg>
