<svg width="20" height="20" viewBox="0 0 20 20" fill="none" xmlns="http://www.w3.org/2000/svg">
<path d="M9.85545 1.31225C10.7939 0.978125 11.8124 0.953176 12.7656 1.24096L15.6601 2.09447C16.2663 2.27063 16.8325 2.56739 17.3252 2.96752C17.8177 3.36757 18.2271 3.86333 18.5303 4.42553C18.851 4.98989 19.0563 5.61515 19.1328 6.26244C19.2092 6.90954 19.1557 7.5657 18.9756 8.19115L17.4648 13.5281C17.1878 14.4973 16.6229 15.3562 15.8476 15.9861C15.0725 16.6157 14.1249 16.9863 13.1347 17.0466C12.6361 17.441 12.0653 17.7308 11.456 17.9001L8.56932 18.7537C7.96492 18.9374 7.33058 18.9981 6.70311 18.9324C6.07554 18.8666 5.46607 18.6762 4.91112 18.3708C4.35627 18.0655 3.8664 17.6513 3.46873 17.1531C3.07105 16.6548 2.77358 16.0818 2.59373 15.4665L1.03319 10.1208C0.670569 8.87997 0.80525 7.54348 1.40916 6.40404C2.01313 5.26463 3.03663 4.41516 4.25487 4.04174L7.14256 3.18725C7.2723 3.15154 7.40431 3.1234 7.53709 3.10228C8.10598 2.27267 8.91703 1.64636 9.85545 1.31225ZM4.61619 5.29662C4.1705 5.43158 3.75527 5.6553 3.39451 5.95385C3.03388 6.25235 2.73425 6.62048 2.51366 7.03686C2.29312 7.45324 2.15518 7.91001 2.10838 8.38061C2.0616 8.85128 2.10702 9.32707 2.24119 9.78002L3.80174 15.1247C4.07509 16.0362 4.69282 16.801 5.51854 17.2507C6.34417 17.7002 7.31115 17.7982 8.20799 17.5242L11.0029 16.696L8.57713 15.9792C7.97009 15.8017 7.4036 15.5034 6.91014 15.1023C6.41655 14.7009 6.00535 14.2038 5.70116 13.6404C5.39706 13.077 5.20583 12.458 5.13768 11.8191C5.06957 11.18 5.12633 10.5334 5.30467 9.91674L6.80662 4.63061L4.61619 5.29662ZM11.3887 2.36791C10.6342 2.37652 9.9024 2.62997 9.29881 3.09057C8.69528 3.55114 8.25159 4.19501 8.03221 4.92943L6.52147 10.2663C6.39179 10.721 6.35108 11.1972 6.40233 11.6677C6.4536 12.1382 6.59593 12.5939 6.8203 13.0085C7.04475 13.4233 7.34751 13.789 7.71092 14.0847C8.07435 14.3804 8.49145 14.6006 8.93846 14.7322L11.834 15.5867C12.7363 15.8506 13.7049 15.7399 14.5273 15.279C14.9338 15.0521 15.2918 14.7442 15.5801 14.3747C15.8682 14.0053 16.0811 13.5809 16.206 13.1267L17.7246 7.78978L17.6914 7.83275C17.8211 7.37811 17.8618 6.9019 17.8105 6.43139C17.7593 5.9609 17.617 5.50524 17.3926 5.09057C17.1681 4.67585 16.8653 4.31008 16.5019 4.01439C16.1385 3.7187 15.7214 3.49851 15.2744 3.36693L12.3789 2.51342C12.0571 2.41806 11.7238 2.36883 11.3887 2.36791ZM9.95409 10.0613L12.2949 10.6843C12.4507 10.7267 12.5846 10.8287 12.6689 10.9685C12.7532 11.1083 12.7814 11.2758 12.748 11.4363C12.7089 11.5717 12.6286 11.6912 12.5185 11.7771C12.4085 11.8629 12.2744 11.9105 12.1357 11.9138H11.9765L9.64354 11.2908C9.56406 11.2708 9.48868 11.2348 9.42284 11.1853C9.35719 11.1359 9.30178 11.0739 9.25975 11.0027C9.21763 10.9313 9.18965 10.8517 9.17772 10.7693C9.16584 10.687 9.17035 10.6029 9.19041 10.5222C9.232 10.3584 9.33548 10.2179 9.4785 10.1316C9.62158 10.0452 9.7928 10.0198 9.95409 10.0613ZM10.8183 6.71459L14.7627 7.74779C14.919 7.79553 15.051 7.90368 15.1308 8.04857C15.2106 8.19351 15.2321 8.36454 15.1904 8.52514C15.1525 8.66114 15.0721 8.78085 14.9619 8.86693C14.8516 8.95299 14.717 9.00059 14.5781 9.00268H14.418L10.4736 7.97826C10.3202 7.92218 10.1931 7.80911 10.1181 7.66186C10.0433 7.51467 10.0259 7.34406 10.0693 7.18432C10.1129 7.02442 10.2147 6.88661 10.3535 6.79955C10.4922 6.71268 10.6585 6.68233 10.8183 6.71459Z" fill="#181D4C"/>
<path d="M15.1927 8.52399C15.1548 8.66018 15.0747 8.78027 14.9643 8.86642C14.8539 8.95257 14.7191 9.00018 14.58 9.00217H14.4206L10.4762 7.9775C10.3227 7.92145 10.1958 7.80842 10.1208 7.66109C10.0457 7.51377 10.0283 7.34303 10.0718 7.18314C10.1153 7.02324 10.2167 6.886 10.3555 6.79895C10.4943 6.71189 10.6604 6.68145 10.8203 6.71374L14.7647 7.74695C14.9212 7.79463 15.0533 7.90236 15.1332 8.04736C15.2131 8.19236 15.2344 8.36328 15.1927 8.52399Z" fill="#D8222A"/>
<path d="M12.7507 11.4363C12.7115 11.5718 12.6311 11.6911 12.521 11.7771C12.4109 11.863 12.2768 11.9111 12.138 11.9145H11.9786L9.64551 11.2911C9.56604 11.2711 9.49122 11.2354 9.42538 11.1859C9.35954 11.1364 9.30396 11.0742 9.26184 11.0028C9.21972 10.9313 9.1919 10.8521 9.17997 10.7697C9.16804 10.6873 9.17224 10.6034 9.19233 10.5226C9.23385 10.3586 9.33751 10.2181 9.48063 10.1317C9.62375 10.0453 9.79467 10.02 9.95602 10.0615L12.2975 10.6848C12.4532 10.7272 12.5871 10.8288 12.6714 10.9686C12.7557 11.1084 12.7841 11.2758 12.7507 11.4363Z" fill="#D8222A"/>
</svg>
