<svg width="40" height="40" viewBox="0 0 40 40" fill="none" xmlns="http://www.w3.org/2000/svg">
<path d="M19.2256 11.7256C23.3676 11.7257 26.7256 15.0835 26.7256 19.2256C26.7256 21.0412 26.0794 22.7054 25.0059 24.0029L28.0596 27.0576C28.336 27.3343 28.3361 27.783 28.0596 28.0596C27.783 28.336 27.3342 28.336 27.0576 28.0596L24.0039 25.0049C22.7063 26.079 21.0417 26.7255 19.2256 26.7256C15.0835 26.7256 11.7256 23.3677 11.7256 19.2256C11.7256 15.0835 15.0835 11.7256 19.2256 11.7256ZM19.2256 13.1152C15.8511 13.1152 13.1152 15.8511 13.1152 19.2256C13.1152 22.6 15.8511 25.3359 19.2256 25.3359C22.5999 25.3358 25.335 22.5999 25.335 19.2256C25.335 15.8512 22.5999 13.1154 19.2256 13.1152Z" fill="#181D4C"/>
</svg>
