<svg width="24" height="30" viewBox="0 0 24 30" fill="none" xmlns="http://www.w3.org/2000/svg">
<path opacity="0.3" d="M8.95425 28.0759L2.45175 22.7634C1.89572 22.3143 1.44694 21.7468 1.13813 21.1022C0.829325 20.4576 0.668282 19.7522 0.666748 19.0375V8.62502C0.667273 7.7 0.934935 6.7948 1.43756 6.01825C1.94019 5.24169 2.65639 4.62681 3.50008 4.24752L10.0167 1.27252C10.6436 0.985804 11.3249 0.837402 12.0142 0.837402C12.7036 0.837402 13.3849 0.985804 14.0117 1.27252L20.5001 4.24752C21.3438 4.62681 22.06 5.24169 22.5626 6.01825C23.0652 6.7948 23.3329 7.7 23.3334 8.62502V19.0375C23.3336 19.7511 23.1747 20.4558 22.8684 21.1003C22.5621 21.7448 22.116 22.3129 21.5626 22.7634L15.0601 28.0759C14.2014 28.7865 13.1217 29.1753 12.0072 29.1753C10.8926 29.1753 9.81291 28.7865 8.95425 28.0759Z" fill="#F8285A"/>
<path d="M14.8334 18.8248C14.6971 18.8262 14.5618 18.8007 14.4354 18.7496C14.309 18.6986 14.1939 18.623 14.0968 18.5273L8.43012 12.9882C8.23114 12.7889 8.11938 12.5189 8.11938 12.2373C8.11938 11.9558 8.23114 11.6857 8.43012 11.4865C8.6335 11.29 8.90524 11.1802 9.18803 11.1802C9.47083 11.1802 9.74257 11.29 9.94595 11.4865L15.6126 17.0257C15.8116 17.2249 15.9233 17.4949 15.9233 17.7765C15.9233 18.058 15.8116 18.3281 15.6126 18.5273C15.5091 18.6262 15.3868 18.7035 15.253 18.7546C15.1192 18.8057 14.9766 18.8295 14.8334 18.8248Z" fill="#F8285A"/>
<path d="M9.1668 18.8251C9.02504 18.8261 8.8845 18.799 8.75322 18.7456C8.62194 18.6921 8.50251 18.6132 8.4018 18.5134C8.20283 18.3142 8.09106 18.0442 8.09106 17.7626C8.09106 17.481 8.20283 17.211 8.4018 17.0118L14.0685 11.4726C14.1584 11.3415 14.2767 11.2322 14.4145 11.1529C14.5524 11.0735 14.7062 11.0262 14.8648 11.0142C15.0234 11.0023 15.1827 11.0261 15.3308 11.0839C15.479 11.1417 15.6122 11.2321 15.7208 11.3482C15.8294 11.4644 15.9105 11.6035 15.9582 11.7552C16.0059 11.907 16.0189 12.0674 15.9963 12.2249C15.9736 12.3823 15.916 12.5326 15.8275 12.6648C15.739 12.7969 15.622 12.9075 15.4851 12.9884L9.81846 18.5276C9.64093 18.6973 9.41132 18.8021 9.1668 18.8251Z" fill="#F8285A"/>
</svg>
