<svg width="40" height="40" viewBox="0 0 40 40" fill="none" xmlns="http://www.w3.org/2000/svg">
<path d="M20.0075 39.1382C19.3444 39.1417 18.6873 39.0125 18.0748 38.7583C17.4623 38.5041 16.9068 38.1301 16.4409 37.6581L13.9264 35.1436C13.8794 35.0975 13.8236 35.0611 13.7624 35.0366C13.7012 35.0121 13.6357 35 13.5698 35.001H10.0032C8.66776 35.001 7.38679 34.4717 6.44085 33.5291C5.49491 32.5865 4.96111 31.3074 4.95639 29.972V26.4054C4.95836 26.3394 4.94671 26.2736 4.92217 26.2122C4.89763 26.1509 4.86071 26.0952 4.81373 26.0487L2.3171 23.5699C1.84692 23.1026 1.4738 22.5469 1.21919 21.9348C0.964573 21.3227 0.833496 20.6663 0.833496 20.0033C0.833496 19.3404 0.964573 18.684 1.21919 18.0719C1.4738 17.4598 1.84692 16.9041 2.3171 16.4367L4.83156 13.9044C4.88149 13.8602 4.92039 13.8049 4.94516 13.743C4.96993 13.6811 4.97988 13.6142 4.97423 13.5477V9.98112C4.97895 8.64573 5.51274 7.36664 6.45868 6.42404C7.40462 5.48144 8.68559 4.95218 10.021 4.95219H13.5876C13.6535 4.95313 13.719 4.94101 13.7802 4.91652C13.8414 4.89204 13.8972 4.85567 13.9443 4.80952L16.4409 2.29505C17.4004 1.37516 18.6783 0.861572 20.0075 0.861572C21.3368 0.861572 22.6146 1.37516 23.5742 2.29505L26.0886 4.80952C26.1782 4.90002 26.3001 4.95132 26.4275 4.95219H29.9941C31.3295 4.9569 32.6086 5.4907 33.5512 6.43664C34.4938 7.38258 35.023 8.66355 35.023 9.99895V13.5656C35.0221 13.6315 35.0342 13.697 35.0587 13.7582C35.0832 13.8194 35.1195 13.8752 35.1657 13.9222L37.698 16.4367C38.6389 17.3853 39.1668 18.6672 39.1668 20.0033C39.1668 21.3394 38.6389 22.6214 37.698 23.5699L35.1657 26.0487C35.0783 26.1476 35.0279 26.2736 35.023 26.4054V29.972C35.023 31.3058 34.4932 32.5849 33.5501 33.528C32.607 34.4711 31.3278 35.001 29.9941 35.001H26.4275C26.3001 35.0018 26.1782 35.0531 26.0886 35.1436L23.5742 37.6581C23.1071 38.1284 22.5514 38.5015 21.9391 38.7555C21.3269 39.0096 20.6704 39.1397 20.0075 39.1382ZM10.021 7.62715C9.3934 7.63182 8.79283 7.8832 8.34904 8.32699C7.90524 8.77078 7.65386 9.37136 7.64919 9.99895V13.5656C7.6466 14.4072 7.31359 15.2141 6.72187 15.8125L4.2074 18.3092C3.76852 18.7532 3.52239 19.3523 3.52239 19.9766C3.52239 20.6009 3.76852 21.2 4.2074 21.644L6.72187 24.1584C7.01728 24.4531 7.25133 24.8034 7.41051 25.1891C7.56968 25.5748 7.6508 25.9882 7.64919 26.4054V29.972C7.6539 30.598 7.90586 31.1967 8.35015 31.6376C8.79444 32.0786 9.39503 32.326 10.021 32.326H13.5876C14.4292 32.3286 15.2361 32.6616 15.8346 33.2533L18.3491 35.7678C18.8024 36.1954 19.4021 36.4336 20.0254 36.4336C20.6486 36.4336 21.2483 36.1954 21.7017 35.7678L24.2161 33.2533C24.8069 32.661 25.6087 32.3275 26.4453 32.326H30.0119C30.6362 32.326 31.235 32.078 31.6764 31.6365C32.1179 31.1951 32.3659 30.5963 32.3659 29.972V26.4054C32.3704 25.5642 32.7031 24.758 33.2932 24.1584L35.8255 21.644C36.2601 21.1978 36.5034 20.5995 36.5034 19.9766C36.5034 19.3537 36.2601 18.7554 35.8255 18.3092L33.2754 15.7947C32.6836 15.1962 32.3506 14.3893 32.348 13.5477V9.98112C32.3434 9.35825 32.0939 8.76222 31.6534 8.32177C31.213 7.88132 30.6169 7.63182 29.9941 7.62715H26.4275C26.0126 7.63039 25.6014 7.54993 25.2184 7.3906C24.8354 7.23127 24.4884 6.99633 24.1983 6.69983L21.6838 4.18536C21.2305 3.75774 20.6308 3.51955 20.0075 3.51955C19.3843 3.51955 18.7846 3.75774 18.3312 4.18536L15.8168 6.69983C15.5239 6.99768 15.174 7.23333 14.7879 7.39268C14.4018 7.55202 13.9875 7.63177 13.5698 7.62715H10.021ZM14.6576 26.6907C14.4814 26.6947 14.3064 26.6619 14.1436 26.5943C13.9809 26.5268 13.834 26.426 13.7124 26.2984C13.462 26.0476 13.3213 25.7077 13.3213 25.3533C13.3213 24.9988 13.462 24.6589 13.7124 24.4081L24.4123 13.7082C24.6631 13.4578 25.003 13.3171 25.3575 13.3171C25.7119 13.3171 26.0518 13.4578 26.3026 13.7082C26.5531 13.959 26.6938 14.299 26.6938 14.6534C26.6938 15.0078 26.5531 15.3478 26.3026 15.5985L15.6028 26.2984C15.4793 26.4234 15.3321 26.5226 15.1698 26.5899C15.0075 26.6573 14.8333 26.6916 14.6576 26.6907ZM14.6576 12.8701C14.3049 12.8701 13.9601 12.9747 13.6668 13.1706C13.3736 13.3666 13.145 13.6451 13.01 13.971C12.8751 14.2968 12.8397 14.6554 12.9086 15.0013C12.9774 15.3472 13.1472 15.665 13.3966 15.9144C13.646 16.1638 13.9638 16.3336 14.3097 16.4024C14.6556 16.4712 15.0142 16.4359 15.34 16.301C15.6659 16.166 15.9444 15.9374 16.1404 15.6441C16.3363 15.3509 16.4409 15.0061 16.4409 14.6534C16.4409 14.1804 16.253 13.7268 15.9186 13.3924C15.5842 13.058 15.1306 12.8701 14.6576 12.8701ZM25.3575 23.5699C25.0048 23.5699 24.66 23.6745 24.3667 23.8705C24.0734 24.0664 23.8449 24.345 23.7099 24.6708C23.5749 24.9967 23.5396 25.3552 23.6084 25.7012C23.6772 26.0471 23.8471 26.3648 24.0965 26.6142C24.3459 26.8636 24.6636 27.0335 25.0096 27.1023C25.3555 27.1711 25.7141 27.1358 26.0399 27.0008C26.3658 26.8658 26.6443 26.6373 26.8402 26.344C27.0362 26.0507 27.1408 25.706 27.1408 25.3533C27.1408 24.8803 26.9529 24.4267 26.6185 24.0923C26.284 23.7578 25.8304 23.5699 25.3575 23.5699Z" fill="#181D4C"/>
<path d="M14.6573 26.6876C14.4812 26.6916 14.3061 26.6587 14.1434 26.5912C13.9806 26.5236 13.8337 26.4228 13.7122 26.2953C13.4617 26.0445 13.321 25.7045 13.321 25.3501C13.321 24.9957 13.4617 24.6557 13.7122 24.405L24.412 13.7051C24.6628 13.4546 25.0028 13.3139 25.3572 13.3139C25.7116 13.3139 26.0516 13.4546 26.3024 13.7051C26.5528 13.9559 26.6935 14.2958 26.6935 14.6503C26.6935 15.0047 26.5528 15.3446 26.3024 15.5954L15.6025 26.2953C15.479 26.4203 15.3318 26.5194 15.1695 26.5868C15.0072 26.6542 14.8331 26.6884 14.6573 26.6876ZM14.6573 12.8669C14.3046 12.8669 13.9598 12.9715 13.6666 13.1675C13.3733 13.3634 13.1447 13.642 13.0098 13.9678C12.8748 14.2937 12.8395 14.6522 12.9083 14.9982C12.9771 15.3441 13.1469 15.6618 13.3963 15.9112C13.6457 16.1606 13.9635 16.3305 14.3094 16.3993C14.6554 16.4681 15.0139 16.4328 15.3398 16.2978C15.6656 16.1628 15.9442 15.9343 16.1401 15.641C16.3361 15.3477 16.4406 15.003 16.4406 14.6503C16.4406 14.1773 16.2528 13.7237 15.9183 13.3893C15.5839 13.0548 15.1303 12.8669 14.6573 12.8669ZM25.3572 23.5668C25.0045 23.5668 24.6597 23.6714 24.3664 23.8673C24.0732 24.0633 23.8446 24.3418 23.7096 24.6677C23.5747 24.9935 23.5393 25.3521 23.6082 25.698C23.677 26.044 23.8468 26.3617 24.0962 26.6111C24.3456 26.8605 24.6634 27.0304 25.0093 27.0992C25.3552 27.168 25.7138 27.1327 26.0396 26.9977C26.3655 26.8627 26.644 26.6341 26.84 26.3409C27.0359 26.0476 27.1405 25.7028 27.1405 25.3501C27.1405 24.8772 26.9526 24.4236 26.6182 24.0891C26.2838 23.7547 25.8302 23.5668 25.3572 23.5668Z" fill="#D8222A"/>
</svg>
