<svg width="20" height="20" viewBox="0 0 20 20" fill="none" xmlns="http://www.w3.org/2000/svg">
<path d="M7.21611 18.6345C6.82843 18.6313 6.44803 18.5289 6.11118 18.337L4.72577 17.5296C4.47368 17.3853 4.25288 17.1923 4.07629 16.9617C3.8997 16.7311 3.77087 16.4676 3.69734 16.1867C3.61957 15.9028 3.59906 15.6063 3.637 15.3145C3.67494 15.0227 3.77057 14.7413 3.91832 14.4868L4.2923 13.8493C4.10886 13.5775 3.94415 13.2935 3.79933 12.9994H3.03438C2.74418 12.9982 2.45704 12.94 2.18935 12.8279C1.92166 12.7158 1.67868 12.5521 1.47426 12.3461C1.26985 12.1401 1.10801 11.8959 0.997982 11.6273C0.887959 11.3588 0.831906 11.0712 0.833024 10.781V9.15761C0.835487 8.87402 0.893802 8.59369 1.00464 8.33265C1.11547 8.0716 1.27666 7.83495 1.47898 7.63621C1.68301 7.43212 1.92561 7.27066 2.19264 7.16122C2.45967 7.05178 2.7458 6.99655 3.03438 6.99875H3.78233C3.92822 6.70342 4.09584 6.41932 4.2838 6.14881L3.90982 5.47735C3.76566 5.22457 3.67325 4.94562 3.63798 4.65676C3.60271 4.36791 3.62529 4.07492 3.7044 3.79487C3.78351 3.51483 3.91756 3.25333 4.09875 3.02562C4.27995 2.79791 4.50465 2.60854 4.75977 2.46855L6.15368 1.6696C6.40702 1.52773 6.68583 1.43716 6.97419 1.4031C7.26254 1.36903 7.55479 1.39212 7.83421 1.47105C8.11364 1.54999 8.37477 1.68322 8.60268 1.86312C8.8306 2.04303 9.02082 2.26609 9.16248 2.51955L9.52796 3.15701C9.82803 3.14001 10.1288 3.14001 10.4289 3.15701L10.8284 2.48555C10.9737 2.23434 11.1671 2.01422 11.3975 1.83776C11.628 1.6613 11.8909 1.53196 12.1713 1.45712C12.4548 1.37693 12.7517 1.35517 13.0439 1.39316C13.3361 1.43114 13.6176 1.52808 13.8712 1.6781L15.2566 2.47705C15.7635 2.77033 16.1333 3.25285 16.2847 3.81861C16.4361 4.38436 16.3567 4.98708 16.064 5.49435L15.6986 6.14031C15.8899 6.41026 16.0604 6.69439 16.2085 6.99026H16.9735C17.5589 6.99698 18.1179 7.23483 18.5286 7.65196C18.9394 8.06909 19.1686 8.63169 19.1663 9.21711V10.8575C19.1596 11.4399 18.9241 11.9964 18.5107 12.4067C18.0972 12.817 17.5389 13.0482 16.9565 13.0504H16.2C16.0607 13.326 15.9046 13.5928 15.7326 13.8493L16.115 14.5208C16.2569 14.7741 16.3475 15.0529 16.3815 15.3413C16.4156 15.6296 16.3925 15.9219 16.3136 16.2013C16.2346 16.4807 16.1014 16.7419 15.9215 16.9698C15.7416 17.1977 15.5185 17.3879 15.2651 17.5296L13.8712 18.3285C13.6181 18.4715 13.3392 18.563 13.0506 18.5977C12.762 18.6323 12.4694 18.6095 12.1897 18.5305C11.9099 18.4515 11.6486 18.3178 11.4208 18.1373C11.193 17.9567 11.0032 17.7329 10.8624 17.4786L10.4884 16.8411C10.1716 16.8665 9.85326 16.8665 9.53646 16.8411L9.14548 17.5041C8.95348 17.8471 8.67347 18.1326 8.33433 18.3313C7.99518 18.53 7.60918 18.6347 7.21611 18.6345ZM3.05138 8.30767C2.80476 8.30712 2.56738 8.40147 2.38842 8.57115C2.30172 8.65834 2.23307 8.76178 2.1864 8.87554C2.13972 8.9893 2.11595 9.11115 2.11644 9.23411V10.832C2.13137 11.0666 2.23412 11.287 2.40424 11.4492C2.57435 11.6114 2.79934 11.7036 3.03438 11.7074H4.2073C4.33318 11.7054 4.45669 11.7417 4.56144 11.8116C4.66619 11.8814 4.74722 11.9814 4.79377 12.0984C4.99189 12.5656 5.24896 13.0054 5.55872 13.4073C5.63464 13.509 5.67981 13.6303 5.68885 13.7568C5.69789 13.8834 5.67042 14.0099 5.60971 14.1213L5.02325 15.1157C4.904 15.3337 4.87064 15.5884 4.92976 15.8297C4.99416 16.0667 5.15008 16.2685 5.36323 16.3906L6.74864 17.1981C6.85501 17.2614 6.9732 17.3024 7.09597 17.3185C7.21873 17.3346 7.34349 17.3254 7.46259 17.2916C7.70077 17.2251 7.90451 17.07 8.03205 16.8581L8.61852 15.8382C8.68318 15.7299 8.77774 15.6426 8.89083 15.5869C9.00392 15.5311 9.13072 15.5091 9.25597 15.5237C9.74714 15.5832 10.2437 15.5832 10.7349 15.5237C10.8596 15.5037 10.9875 15.5223 11.1015 15.577C11.2154 15.6317 11.3099 15.7198 11.3723 15.8297L11.9503 16.8326C12.0732 17.0478 12.2766 17.2054 12.5156 17.2707C12.7547 17.3361 13.0099 17.3038 13.2252 17.1811L14.6106 16.3821C14.7183 16.3233 14.813 16.2433 14.889 16.1469C14.9649 16.0505 15.0206 15.9397 15.0526 15.8212C15.1117 15.5799 15.0784 15.3252 14.9591 15.1072L14.3726 14.0873C14.3042 13.9824 14.2678 13.8598 14.2678 13.7346C14.2678 13.6093 14.3042 13.4868 14.3726 13.3818C14.6717 12.9957 14.9202 12.573 15.1121 12.1239C15.154 12.0032 15.2336 11.8991 15.3393 11.8272C15.4449 11.7552 15.5709 11.7192 15.6986 11.7244H16.8545C17.0987 11.7341 17.3373 11.6495 17.5208 11.4881C17.7043 11.3267 17.8188 11.1009 17.8404 10.8575V9.24261C17.8409 9.11965 17.8171 8.9978 17.7705 8.88404C17.7238 8.77028 17.6551 8.66684 17.5684 8.57965C17.4838 8.49128 17.3822 8.42089 17.2698 8.3727C17.1573 8.32451 17.0363 8.2995 16.914 8.29917H15.7496C15.6235 8.29709 15.5008 8.25816 15.3966 8.18717C15.2923 8.11619 15.2112 8.01625 15.1631 7.8997C14.9648 7.43611 14.7046 7.00152 14.3896 6.60778C14.313 6.50619 14.2681 6.38424 14.2606 6.25722C14.253 6.13021 14.2831 6.00379 14.3471 5.89383L14.9251 4.89089C15.0479 4.6756 15.0801 4.42037 15.0148 4.1813C14.9494 3.94224 14.7918 3.7389 14.5766 3.61598L13.1912 2.78303C12.9907 2.66701 12.753 2.63349 12.5283 2.68954C12.2893 2.75446 12.085 2.90995 11.9588 3.12301L11.3723 4.14294C11.3093 4.25273 11.215 4.34127 11.1015 4.39728C10.988 4.45329 10.8603 4.47422 10.7349 4.45742C10.2579 4.39796 9.77543 4.39796 9.29847 4.45742C9.17424 4.47361 9.048 4.45232 8.93594 4.39629C8.82388 4.34026 8.73111 4.25204 8.66951 4.14294L8.05755 3.13151C7.93305 2.918 7.72973 2.76188 7.49131 2.69671C7.2529 2.63155 6.99844 2.66254 6.78264 2.78303L5.38873 3.56498C5.17377 3.68807 5.01584 3.89077 4.94905 4.12931C4.88226 4.36784 4.91197 4.62307 5.03175 4.8399L5.60971 5.86833C5.68061 5.9811 5.71388 6.11347 5.70471 6.24636C5.69555 6.37926 5.64443 6.50581 5.55872 6.60778C5.25143 6.9991 4.99444 7.42741 4.79377 7.8827C4.74624 7.99898 4.66497 8.09837 4.56045 8.16805C4.45592 8.23774 4.33292 8.27452 4.2073 8.27367H3.05138V8.30767ZM9.97843 13.4073C9.30601 13.4073 8.6487 13.2079 8.08961 12.8344C7.53052 12.4608 7.09476 11.9298 6.83744 11.3086C6.58012 10.6874 6.51279 10.0038 6.64397 9.34429C6.77516 8.6848 7.09895 8.07902 7.57442 7.60355C8.04989 7.12808 8.65567 6.80429 9.31516 6.67311C9.97466 6.54192 10.6582 6.60925 11.2795 6.86657C11.9007 7.12389 12.4317 7.55965 12.8052 8.11874C13.1788 8.67783 13.3782 9.33515 13.3782 10.0076C13.3782 10.9092 13.02 11.774 12.3824 12.4116C11.7449 13.0491 10.8801 13.4073 9.97843 13.4073ZM9.97843 7.8827C9.55817 7.8827 9.14735 8.00732 8.79792 8.2408C8.44849 8.47428 8.17614 8.80614 8.01531 9.19441C7.85449 9.58268 7.81241 10.0099 7.89439 10.4221C7.97638 10.8343 8.17876 11.2129 8.47592 11.5101C8.77309 11.8072 9.1517 12.0096 9.56389 12.0916C9.97607 12.1736 10.4033 12.1315 10.7916 11.9707C11.1798 11.8098 11.5117 11.5375 11.7452 11.1881C11.9787 10.8386 12.1033 10.4278 12.1033 10.0076C12.1033 9.44401 11.8794 8.90354 11.4809 8.50505C11.0824 8.10657 10.542 7.8827 9.97843 7.8827Z" fill="#181D4C"/>
<path d="M9.97986 13.408C9.30745 13.408 8.65013 13.2086 8.09104 12.835C7.53195 12.4614 7.09619 11.9304 6.83887 11.3092C6.58155 10.688 6.51422 10.0044 6.64541 9.34491C6.77659 8.68542 7.10038 8.07964 7.57585 7.60417C8.05132 7.1287 8.6571 6.80491 9.31659 6.67373C9.97609 6.54254 10.6597 6.60987 11.2809 6.86719C11.9021 7.12451 12.4331 7.56027 12.8067 8.11936C13.1802 8.67845 13.3796 9.33577 13.3796 10.0082C13.3796 10.9099 13.0214 11.7746 12.3839 12.4122C11.7463 13.0498 10.8815 13.408 9.97986 13.408ZM9.97986 7.88332C9.5596 7.88332 9.14878 8.00794 8.79935 8.24142C8.44992 8.4749 8.17757 8.80676 8.01674 9.19503C7.85592 9.5833 7.81384 10.0105 7.89582 10.4227C7.97781 10.8349 8.18019 11.2135 8.47735 11.5107C8.77452 11.8078 9.15313 12.0102 9.56532 12.0922C9.9775 12.1742 10.4047 12.1321 10.793 11.9713C11.1813 11.8105 11.5131 11.5381 11.7466 11.1887C11.9801 10.8393 12.1047 10.4284 12.1047 10.0082C12.1047 9.44463 11.8808 8.90416 11.4824 8.50567C11.0839 8.10719 10.5434 7.88332 9.97986 7.88332Z" fill="#D8222A"/>
</svg>
