<svg width="20" height="20" viewBox="0 0 20 20" fill="none" xmlns="http://www.w3.org/2000/svg">
<path d="M6.67962 18.9587C5.20183 18.9543 3.78558 18.3673 2.73905 17.3253C1.69253 16.2834 1.10045 14.8709 1.09165 13.3952L1.04153 6.64721C1.03707 5.16935 1.61899 3.74989 2.65997 2.69942C3.70094 1.64896 5.1162 1.05301 6.59609 1.04199H13.3701C14.8479 1.04636 16.2642 1.63339 17.3107 2.67533C18.3572 3.71727 18.9493 5.12979 18.9581 6.6055V13.3284C18.9648 14.8085 18.3841 16.231 17.3431 17.2846C16.3022 18.3382 14.8857 18.9371 13.4036 18.9503L6.67962 18.9587ZM13.4203 2.27647H6.6462C6.07229 2.27535 5.50385 2.38783 4.97373 2.60739C4.4436 2.82695 3.96231 3.14926 3.55766 3.55567C3.15301 3.96208 2.83303 4.44455 2.61621 4.97519C2.39938 5.50582 2.29002 6.07411 2.29444 6.64721V13.3785C2.29662 13.9506 2.4119 14.5166 2.63367 15.0441C2.85543 15.5716 3.17932 16.0502 3.58674 16.4524C3.99417 16.8546 4.47711 17.1725 5.00786 17.3879C5.53861 17.6033 6.10673 17.7119 6.67962 17.7075L13.4537 17.6658C14.023 17.6636 14.5862 17.5495 15.1114 17.3299C15.6365 17.1103 16.1131 16.7896 16.5141 16.3861C16.9151 15.9825 17.2326 15.5041 17.4484 14.978C17.6643 14.4519 17.7742 13.8886 17.772 13.3201V6.58882C17.7676 5.44358 17.3089 4.34676 16.4964 3.53851C15.6839 2.73027 14.5838 2.27647 13.437 2.27647H13.4203Z" fill="#181D4C"/>
<path d="M6.65097 5.59582C6.37697 5.60238 6.11655 5.71627 5.9259 5.91289C5.73525 6.10952 5.62967 6.37312 5.63194 6.6468V13.3197C5.63403 13.5905 5.74155 13.8498 5.93174 14.0429C6.12193 14.2359 6.37987 14.3475 6.65097 14.354H13.3331C13.6086 14.354 13.8729 14.2453 14.0685 14.0515C14.2641 13.8578 14.375 13.5948 14.3772 13.3197V9.90817C14.3772 9.88384 14.3676 9.8605 14.3503 9.84329C14.3331 9.82608 14.3097 9.81642 14.2854 9.81642C13.8689 9.81642 13.4695 9.65121 13.175 9.35713C12.8805 9.06304 12.715 8.66419 12.715 8.24829V6.6468C12.715 6.50918 12.6878 6.37291 12.6348 6.24587C12.5818 6.11882 12.5041 6.00351 12.4063 5.90658C12.3085 5.80966 12.1924 5.73303 12.0647 5.68113C11.9371 5.62922 11.8004 5.60307 11.6626 5.60417L6.65097 5.59582ZM8.23799 7.6811H9.99206C10.1582 7.6811 10.3175 7.74701 10.435 7.86433C10.5525 7.98165 10.6185 8.14077 10.6185 8.30668C10.6185 8.47259 10.5525 8.63171 10.435 8.74903C10.3175 8.86635 10.1582 8.93226 9.99206 8.93226H8.25469C8.08855 8.93226 7.92921 8.86635 7.81172 8.74903C7.69424 8.63171 7.62824 8.47259 7.62824 8.30668C7.62824 8.14077 7.69424 7.98165 7.81172 7.86433C7.92921 7.74701 8.08855 7.6811 8.25469 7.6811H8.23799ZM11.5791 12.2604H8.32151C8.23374 12.2705 8.14481 12.262 8.06055 12.2355C7.9763 12.2089 7.89863 12.1648 7.83264 12.1061C7.76666 12.0474 7.71385 11.9755 7.6777 11.8949C7.64154 11.8144 7.62284 11.7272 7.62284 11.6389C7.62284 11.5507 7.64154 11.4635 7.6777 11.383C7.71385 11.3024 7.76666 11.2305 7.83264 11.1718C7.89863 11.1131 7.9763 11.069 8.06055 11.0424C8.14481 11.0158 8.23374 11.0074 8.32151 11.0175H11.5958C11.6836 11.0074 11.7725 11.0158 11.8567 11.0424C11.941 11.069 12.0187 11.1131 12.0847 11.1718C12.1506 11.2305 12.2034 11.3024 12.2396 11.383C12.2758 11.4635 12.2944 11.5507 12.2944 11.6389C12.2944 11.7272 12.2758 11.8144 12.2396 11.8949C12.2034 11.9755 12.1506 12.0474 12.0847 12.1061C12.0187 12.1648 11.941 12.2089 11.8567 12.2355C11.7725 12.262 11.6836 12.2705 11.5958 12.2604H11.5791Z" fill="#D8222A"/>
</svg>
