<svg width="30" height="30" viewBox="0 0 30 30" fill="none" xmlns="http://www.w3.org/2000/svg">
<rect x="-0.5" y="0.5" width="29" height="29" rx="7.5" transform="matrix(-1 0 0 1 29 0)" fill="white"/>
<rect x="-0.5" y="0.5" width="29" height="29" rx="7.5" transform="matrix(-1 0 0 1 29 0)" stroke="#F1F1F4"/>
<path d="M8.36269 14.9999C8.36464 15.1485 8.42452 15.2905 8.5296 15.3955C8.63467 15.5006 8.77661 15.5605 8.92519 15.5624H15.0452V17.9999C15.0393 18.0893 15.0617 18.1783 15.1092 18.2543C15.1566 18.3303 15.2267 18.3894 15.3096 18.4234C15.3925 18.4574 15.484 18.4645 15.5711 18.4437C15.6582 18.4229 15.7366 18.3752 15.7952 18.3074L18.7952 15.3074C18.874 15.2275 18.9181 15.1197 18.9181 15.0074C18.9181 14.8952 18.874 14.7874 18.7952 14.7074L15.7952 11.7074C15.7374 11.6409 15.6604 11.5939 15.5749 11.5728C15.4893 11.5517 15.3993 11.5576 15.3172 11.5896C15.2351 11.6216 15.1649 11.6782 15.1162 11.7517C15.0675 11.8251 15.0427 11.9118 15.0452 11.9999V14.4224H8.92519C8.85034 14.4234 8.77641 14.4391 8.70763 14.4687C8.63885 14.4982 8.57656 14.541 8.52433 14.5947C8.47209 14.6483 8.43093 14.7117 8.4032 14.7812C8.37547 14.8508 8.3617 14.9251 8.36269 14.9999ZM21.0752 9.62993C21.2244 9.62993 21.3675 9.6892 21.4729 9.79469C21.5784 9.90018 21.6377 10.0432 21.6377 10.1924V19.8074C21.6377 19.9566 21.5784 20.0997 21.4729 20.2052C21.3675 20.3107 21.2244 20.3699 21.0752 20.3699C20.926 20.3699 20.7829 20.3107 20.6774 20.2052C20.572 20.0997 20.5127 19.9566 20.5127 19.8074V10.1924C20.5117 10.1183 20.5255 10.0447 20.5535 9.97599C20.5814 9.90729 20.6228 9.84487 20.6752 9.79244C20.7276 9.74 20.79 9.69861 20.8587 9.6707C20.9274 9.64279 21.001 9.62893 21.0752 9.62993Z" fill="#99A1B7"/>
</svg>
