<svg width="30" height="30" viewBox="0 0 30 30" fill="none" xmlns="http://www.w3.org/2000/svg">
<rect x="0.5" y="0.5" width="29" height="29" rx="7.5" fill="white"/>
<rect x="0.5" y="0.5" width="29" height="29" rx="7.5" stroke="#F1F1F4"/>
<path d="M21.6373 15C21.6354 15.1486 21.5755 15.2905 21.4704 15.3956C21.3653 15.5007 21.2234 15.5606 21.0748 15.5625H14.9548V18C14.9607 18.0894 14.9383 18.1784 14.8908 18.2543C14.8434 18.3303 14.7733 18.3895 14.6904 18.4235C14.6075 18.4575 14.516 18.4645 14.4289 18.4437C14.3418 18.4229 14.2634 18.3753 14.2048 18.3075L11.2048 15.3075C11.126 15.2275 11.0819 15.1198 11.0819 15.0075C11.0819 14.8952 11.126 14.7875 11.2048 14.7075L14.2048 11.7075C14.2626 11.641 14.3396 11.594 14.4251 11.5729C14.5107 11.5518 14.6007 11.5576 14.6828 11.5896C14.7649 11.6217 14.8351 11.6783 14.8838 11.7517C14.9325 11.8252 14.9573 11.9119 14.9548 12V14.4225H21.0748C21.1497 14.4235 21.2236 14.4392 21.2924 14.4687C21.3612 14.4983 21.4234 14.5411 21.4757 14.5947C21.5279 14.6484 21.5691 14.7118 21.5968 14.7813C21.6245 14.8508 21.6383 14.9251 21.6373 15ZM8.9248 9.63C8.77562 9.63 8.63255 9.68926 8.52706 9.79475C8.42157 9.90024 8.3623 10.0433 8.3623 10.1925V19.8075C8.3623 19.9567 8.42157 20.0998 8.52706 20.2052C8.63255 20.3107 8.77562 20.37 8.9248 20.37C9.07399 20.37 9.21706 20.3107 9.32255 20.2052C9.42804 20.0998 9.4873 19.9567 9.4873 19.8075V10.1925C9.48831 10.1183 9.47445 10.0447 9.44654 9.97605C9.41863 9.90735 9.37724 9.84493 9.3248 9.7925C9.27237 9.74006 9.20995 9.69867 9.14125 9.67076C9.07255 9.64285 8.99895 9.62899 8.9248 9.63Z" fill="#99A1B7"/>
</svg>
