<svg width="20" height="20" viewBox="0 0 20 20" fill="none" xmlns="http://www.w3.org/2000/svg">
<path d="M7.73633 9.94336C11.2588 9.94347 14.0537 11.8745 14.0537 14.3467C14.0537 16.8189 11.2588 18.7499 7.73633 18.75C4.21371 18.75 1.4502 16.819 1.4502 14.3467C1.45022 11.8744 4.21372 9.94336 7.73633 9.94336ZM7.73633 11.1553C4.98127 11.1553 2.66214 12.6177 2.66211 14.3467C2.66211 16.0757 4.98125 17.5381 7.73633 17.5381C10.4832 17.538 12.8018 16.0756 12.8018 14.3467C12.8017 12.6178 10.4912 11.1554 7.73633 11.1553ZM13.8193 10.3877C16.4775 10.3877 18.5625 11.8663 18.5625 13.7568C18.5625 15.3565 17.0436 16.7052 14.8623 17.0527H14.7646C14.621 17.0526 14.4825 17.0013 14.373 16.9082C14.2635 16.8149 14.19 16.6859 14.167 16.5439C14.1436 16.3858 14.1829 16.2244 14.2764 16.0947C14.3699 15.9651 14.5105 15.8774 14.668 15.8496C16.2273 15.6072 17.3506 14.7264 17.3506 13.7568C17.3506 12.5853 15.7342 11.5996 13.8193 11.5996C13.6588 11.5995 13.5051 11.5354 13.3916 11.4219C13.278 11.3082 13.2139 11.1539 13.2139 10.9932C13.214 10.8326 13.2781 10.679 13.3916 10.5654C13.5051 10.4519 13.6588 10.3878 13.8193 10.3877ZM13.6094 2.90625C14.4836 2.88696 15.3301 3.21575 15.9619 3.82031C16.5937 4.42486 16.9592 5.25568 16.9785 6.12988C16.9978 7.0041 16.669 7.85062 16.0645 8.48242C15.4599 9.11404 14.629 9.47974 13.7549 9.49902L13.6582 9.49121C13.505 9.5038 13.3505 9.5038 13.1973 9.49121C13.1183 9.4803 13.0424 9.45342 12.9736 9.41309C12.9047 9.37262 12.844 9.31871 12.7959 9.25488C12.7479 9.19111 12.7132 9.11832 12.6934 9.04102C12.6735 8.96364 12.6693 8.88278 12.6807 8.80371C12.7066 8.646 12.7923 8.50444 12.9199 8.4082C13.0478 8.3119 13.2082 8.26838 13.3672 8.28711C13.4801 8.29543 13.5941 8.29543 13.707 8.28711C13.9806 8.28069 14.2506 8.21995 14.501 8.10938C14.7511 7.99882 14.9771 7.84034 15.166 7.64258C15.3551 7.44451 15.5037 7.21042 15.6025 6.95508C15.7013 6.69991 15.7485 6.42784 15.7422 6.1543C15.7358 5.88067 15.676 5.61073 15.5654 5.36035C15.4548 5.10989 15.2957 4.8834 15.0977 4.69434C14.8996 4.50529 14.6665 4.35668 14.4111 4.25781C14.1558 4.15894 13.8831 4.1118 13.6094 4.11816C13.4489 4.11809 13.2952 4.05388 13.1816 3.94043C13.068 3.82679 13.0039 3.67243 13.0039 3.51172C13.004 3.35112 13.0681 3.19755 13.1816 3.08398C13.2952 2.97042 13.4488 2.90632 13.6094 2.90625ZM7.73633 1.25C8.26673 1.25004 8.7922 1.35464 9.28223 1.55762C9.77224 1.76063 10.2177 2.05854 10.5928 2.43359C10.9677 2.80865 11.2648 3.25416 11.4678 3.74414C11.6707 4.23422 11.7754 4.75959 11.7754 5.29004C11.7753 6.0889 11.5386 6.86995 11.0947 7.53418C10.6509 8.1983 10.0202 8.71574 9.28223 9.02148C8.54418 9.3272 7.73176 9.40773 6.94824 9.25195C6.16476 9.09611 5.4448 8.71127 4.87988 8.14648C4.31501 7.58162 3.93034 6.8616 3.77441 6.07812C3.61856 5.2946 3.69825 4.48223 4.00391 3.74414C4.30962 3.00608 4.82701 2.37454 5.49121 1.93066C6.15554 1.48678 6.93735 1.25 7.73633 1.25ZM8.86914 2.57227C8.33861 2.35165 7.75419 2.2924 7.19043 2.40332C6.62673 2.51427 6.10854 2.7902 5.70117 3.19531C5.29393 3.60036 5.01545 4.11676 4.90137 4.67969C4.78732 5.24283 4.84288 5.82763 5.06055 6.35938C5.27822 6.89107 5.64885 7.34646 6.125 7.66797C6.60111 7.98936 7.1619 8.16282 7.73633 8.16602C8.50912 8.16595 9.25087 7.86036 9.79883 7.31543C10.3468 6.77052 10.6568 6.03054 10.6611 5.25781C10.6611 4.68338 10.4906 4.12143 10.1719 3.64355C9.85305 3.1657 9.39953 2.79289 8.86914 2.57227Z" fill="#181D4C"/>
<path d="M13.7556 9.49887C14.6298 9.47959 15.4606 9.1138 16.0652 8.48196C16.6697 7.85013 16.9985 7.00402 16.9793 6.12976C16.96 5.2555 16.5942 4.42471 15.9623 3.82015C15.3305 3.21559 14.4844 2.88679 13.6101 2.90608C13.4494 2.90608 13.2953 2.96992 13.1817 3.08356C13.068 3.1972 13.0042 3.35132 13.0042 3.51203C13.0042 3.67274 13.068 3.82687 13.1817 3.94051C13.2953 4.05415 13.4494 4.11799 13.6101 4.11799C13.8839 4.11162 14.1562 4.15923 14.4115 4.25811C14.6669 4.35698 14.9002 4.50518 15.0983 4.69424C15.2964 4.8833 15.4552 5.10952 15.5659 5.35999C15.6765 5.61046 15.7367 5.88026 15.7431 6.154C15.7495 6.42774 15.7019 6.70005 15.603 6.95539C15.5041 7.21073 15.3559 7.44409 15.1668 7.64215C14.9778 7.84022 14.7516 7.9991 14.5011 8.10974C14.2506 8.22038 13.9808 8.2806 13.7071 8.28696C13.5941 8.29528 13.4807 8.29528 13.3678 8.28696C13.2087 8.26821 13.0486 8.3115 12.9207 8.40781C12.7928 8.50412 12.7069 8.64604 12.681 8.80405C12.6696 8.88312 12.674 8.96368 12.6938 9.04107C12.7137 9.11846 12.7486 9.19116 12.7967 9.25499C12.8447 9.31882 12.9049 9.37251 12.9738 9.41298C13.0427 9.45345 13.1189 9.47989 13.1981 9.49079C13.3513 9.50339 13.5054 9.50339 13.6586 9.49079L13.7556 9.49887Z" fill="#D8222A"/>
<path d="M14.8621 17.0532C17.0435 16.7058 18.5624 15.3565 18.5624 13.7568C18.5624 11.8662 16.4779 10.3877 13.8198 10.3877C13.6591 10.3877 13.505 10.4515 13.3913 10.5652C13.2777 10.6788 13.2139 10.8329 13.2139 10.9937C13.2139 11.1544 13.2777 11.3085 13.3913 11.4221C13.505 11.5358 13.6591 11.5996 13.8198 11.5996C15.7346 11.5996 17.3505 12.5853 17.3505 13.7568C17.3505 14.7263 16.2275 15.607 14.6682 15.8494C14.5106 15.8771 14.3701 15.9652 14.2765 16.095C14.183 16.2248 14.1438 16.386 14.1672 16.5442C14.1903 16.6862 14.263 16.8154 14.3726 16.9086C14.4821 17.0019 14.6213 17.0531 14.7651 17.0532H14.8621Z" fill="#D8222A"/>
</svg>
